<svg width="214" height="50" viewBox="0 0 214 50" fill="none" xmlns="http://www.w3.org/2000/svg">
<path d="M212.16 21.3776C209.212 18.6573 202.138 19.5775 197.347 19.6575C197.126 19.6575 109.281 19.5775 104.638 19.6575C103.311 19.6575 102.059 19.9775 100.806 20.2175C98.8897 20.5776 69.9272 20.4575 64.8422 20.4975C54.7459 20.6175 44.5759 20.6176 34.4795 20.6176C33.8899 19.6975 32.7845 18.9774 30.5736 18.8174C27.9943 18.6174 25.4149 18.9774 22.8356 18.7374C17.8242 18.2973 20.3299 15.057 21.9512 13.5769C25.0464 10.8167 28.9523 8.45646 33.4478 6.37628C36.1008 5.13617 39.7856 3.77607 40.1541 1.69589C40.3015 0.855819 38.3854 0.695825 37.5747 1.21587C29.763 3.01603 22.1723 5.93627 15.6871 8.85652C12.5181 10.2966 10.4547 12.0568 8.31748 13.9369C6.25399 15.7771 4.04312 17.4573 2.6429 19.4974C1.09528 21.6576 0.505714 24.0578 0.358323 26.338C0.210931 28.4182 -0.0838527 30.6184 1.09528 32.6186C2.4955 34.9788 6.0329 36.2589 6.1066 38.9791C6.1803 40.7393 1.75855 41.9794 1.75855 43.6196C1.75855 45.0197 1.68485 46.9398 3.45355 48.0999C5.14856 49.22 10.0125 49.06 12.2234 48.9C15.0975 48.7 18.4138 48.2999 20.7721 47.2999C22.6145 46.4998 21.9512 43.5395 21.4353 42.5394C20.9932 41.6594 20.2562 40.9793 19.3719 40.2193C17.9716 38.8991 18.0453 37.179 18.7086 35.7388C19.814 33.2986 24.5306 32.2985 28.5838 31.8985C30.3525 31.7385 32.8582 31.8585 34.111 31.0585C41.5543 30.8584 49.0713 30.6984 56.5146 30.6184C63.9579 30.4984 96.9736 30.7784 101.911 31.1784C102.059 31.1784 102.28 31.1784 102.427 31.1784C108.839 32.0985 115.987 31.8985 122.62 32.3385C130.21 32.8186 137.727 32.6586 145.392 32.5786C152.982 32.4985 160.499 32.8586 168.09 32.8986C175.607 32.8986 183.124 32.9786 190.567 33.0186C194.473 33.0586 198.084 33.2186 201.401 34.4188C203.169 35.0588 204.201 35.7788 206.412 35.7788C207.886 35.7788 209.286 34.8988 209.655 34.1387C210.392 32.4986 211.202 30.8984 211.865 29.2583C212.75 27.1781 214.519 23.5778 212.16 21.3776ZM5.88551 33.9387C7.06465 34.2587 8.31748 34.4587 9.64401 34.5387C12.4444 34.6987 14.8027 34.3387 17.161 33.8187C16.5714 34.2987 16.0555 34.8588 15.6871 35.4188C14.1395 37.819 16.0555 39.7792 17.4558 41.8594C13.771 42.2994 10.1599 42.4194 6.47508 42.2994C7.43313 41.6194 8.46487 40.9393 8.83335 40.2593C9.49661 38.8191 8.90705 37.019 7.72791 35.6988C7.13834 35.0988 6.47508 34.4987 5.88551 33.9387ZM18.5612 44.5796C18.6349 45.5797 18.7086 46.3398 16.5714 46.7398C14.5816 47.0998 12.7392 47.3799 10.6021 47.4599C8.98074 47.5399 7.43313 47.3798 5.95921 47.1798C5.00116 47.0598 4.78008 45.6197 4.70638 44.6196C4.70638 44.0596 5.07486 43.5395 5.59073 43.0595C9.7914 43.2595 13.8447 43.1395 17.9716 42.6195C18.2664 43.2595 18.5612 43.8995 18.5612 44.5796ZM32.1212 28.8183C32.1949 30.7784 27.5521 30.4184 24.899 30.8184C22.983 31.0985 21.288 31.5785 19.814 32.2186C14.8764 33.5387 8.75965 34.7788 4.4116 32.5386C3.67464 31.6985 3.15877 30.8184 3.15877 29.6983C3.08507 27.2581 3.15877 24.7779 4.19051 22.3777C5.07486 20.2175 6.69617 18.2573 8.90705 16.3771C11.1179 14.537 13.1077 12.5368 15.9082 10.8967C18.856 9.17654 23.1304 7.69643 26.7414 6.41632C29.2471 5.53625 31.8265 4.61613 34.5532 3.77605C33.8899 4.09608 33.153 4.41614 32.6371 4.65616C30.6473 5.57624 28.6575 6.5363 26.8151 7.53639C23.2777 9.41655 19.2982 12.0568 17.6769 14.577C16.3503 16.5772 16.5714 18.6974 20.1825 19.8975C21.6564 20.3775 23.5725 20.4175 25.1938 20.4175C26.6678 20.4175 28.068 20.2975 29.5419 20.3375C32.0476 20.3375 32.1949 21.6576 32.2686 22.6177C32.0476 22.7777 32.0476 26.9381 32.1212 28.8183ZM56.4409 29.1383C49.2924 29.2183 42.1439 29.3783 34.9954 29.5783C35.6587 27.1381 35.2165 23.3378 35.2165 23.1777C35.2165 22.8977 35.1428 22.5777 35.0691 22.2577C45.018 22.2577 54.967 22.2577 64.8422 22.1377C69.3377 22.0977 93.8047 21.8576 101.764 21.4976C102.869 24.2178 102.869 26.9781 101.985 29.7383C96.3103 29.4183 63.442 29.0183 56.4409 29.1383ZM206.928 33.3386C206.486 34.9388 201.695 32.7786 200.958 32.5386C199.042 31.9785 196.905 31.7385 194.768 31.6185C188.725 31.2585 182.461 31.3385 176.418 31.3385C164.111 31.3385 151.877 30.9784 139.57 31.1384C133.306 31.2184 127.336 31.1384 121.146 30.7384C115.398 30.3784 109.207 30.5384 103.533 29.7783C104.417 26.9781 104.417 24.1378 103.311 21.3776C103.68 21.3376 103.901 21.3376 104.122 21.2976C106.333 20.9376 202.801 21.0976 205.159 21.0976C209.507 21.1376 210.244 22.5777 210.244 24.5779C210.17 27.6181 207.739 30.3784 206.928 33.3386Z" fill="#649BE3"/>
</svg>
