<svg width="147" height="96" viewBox="0 0 147 96" fill="none" xmlns="http://www.w3.org/2000/svg">
<path id="Vector" d="M146.708 19.7236C146.413 16.2033 144.497 12.323 137.791 11.2029C138.012 10.1628 138.159 9.12271 138.085 8.08262C138.085 6.36247 137.717 4.12228 136.317 2.56215C135.211 1.36204 132.19 1.08202 129.979 0.882C125.262 0.441961 120.399 0.361954 115.682 0.321951C105.438 0.241944 95.1945 0.481965 84.9508 0.641979C79.8658 0.721986 74.7808 0.801993 69.6958 0.641979C64.6844 0.481965 59.7468 0.161937 54.8091 0.161937C49.7241 0.161937 44.7128 0.561972 39.6278 0.601975C34.5428 0.681982 29.6051 0.401958 24.5938 0.0819302C20.1721 -0.198094 16.7084 0.281947 12.5815 0.882C9.8547 1.28203 7.79117 0.521968 5.80138 1.88209C2.63245 2.28212 2.11665 4.40231 1.82187 6.00244C1.74817 6.36248 2.63249 6.76251 1.96923 7.08254C1.52705 7.32256 1.15859 7.64259 1.15859 8.00262C1.0112 8.9627 1.15859 9.92278 1.15859 10.9229C1.15859 12.003 0.421631 13.0431 0.421631 14.0431C0.421631 14.4832 0.421631 14.9232 0.79011 15.3233C1.37968 15.8833 1.74812 15.4833 1.30595 16.1633C0.716378 17.0034 1.15857 18.7636 1.96923 19.5236C4.62228 21.8838 9.48617 22.6839 14.2764 23.0039C17.1505 23.2039 20.0984 22.9639 22.9726 22.9239C27.1732 22.8439 31.3002 22.8839 35.5009 22.9239C44.0496 22.9639 52.5983 23.0839 61.1471 23.2039C68.5166 23.3239 75.8125 23.364 83.1084 23.604C89.5936 23.804 96.2263 23.964 102.564 23.0839C102.859 23.1639 103.227 23.2039 103.67 23.1239C106.691 22.6039 111.039 23.404 114.134 23.604C117.967 23.844 123.052 24.244 126.884 23.764C132.853 23.0439 135.138 19.3236 136.317 16.2433C138.675 18.4835 137.643 21.8038 137.938 24.244C138.159 25.8442 138.233 27.4843 137.643 29.0844C136.98 30.8846 134.327 31.6847 131.379 32.2447C126.22 33.2848 120.546 33.6848 115.314 34.5649C108.46 35.725 101.753 36.8851 94.7524 37.6852C91.4361 38.0852 88.4882 38.7253 85.3929 39.4053C82.961 39.9254 82.1504 40.5654 81.0449 41.8456C80.0132 43.0457 76.6231 42.4856 74.707 43.0857C73.0857 43.6057 72.5699 45.0058 72.2751 45.8859C71.2434 48.8462 72.5698 52.1665 72.4962 55.2067C72.4962 59.3671 71.4645 63.4874 72.2751 67.6478C72.2751 67.8078 72.4225 67.8878 72.4962 68.0078C72.4962 74.4884 73.1595 81.049 71.6118 87.4495C71.096 89.4897 70.7275 91.7299 73.0121 93.49C75.0019 95.0102 79.3499 95.3702 82.5189 95.4902C85.6878 95.6102 89.4462 95.2502 91.5834 93.8501C93.9417 92.3299 93.6469 89.6497 93.6469 87.8095C93.6469 80.6889 92.6152 73.5283 93.6469 66.4077C93.6469 66.2077 93.5732 66.0477 93.4258 65.9277C93.4258 63.2874 93.4995 60.6872 93.7206 58.087C94.0154 55.3267 94.9734 52.6065 95.1208 49.8462C95.1945 48.2461 95.6367 45.6859 94.3102 44.1658C93.4259 43.0857 92.0993 42.8456 90.5516 42.7256C94.0891 41.6055 98.5109 41.2055 102.417 40.8055C108.902 40.1254 115.461 39.1253 121.725 38.0052C127.547 36.9651 133.443 36.005 139.191 34.8449C142.065 34.2849 144.202 33.3648 145.381 31.8447C146.708 30.1245 146.118 27.9243 146.339 26.0842C146.708 24.004 146.929 21.8838 146.708 19.7236ZM134.253 13.5231C134.253 13.6031 134.18 13.6831 134.18 13.7631C134.106 13.7231 133.959 13.6831 133.811 13.6831H132.632C131.674 13.6831 131.674 14.4832 132.632 14.4832H133.811C133.885 14.4832 133.959 14.4832 134.032 14.4432C133.885 15.0432 133.664 15.6833 133.369 16.2833C132.779 16.4033 132.116 16.5234 131.6 16.7234C130.79 17.0034 131.527 17.6835 132.337 17.4034C132.558 17.3234 132.706 17.2834 132.927 17.2434C132.706 17.6035 132.558 17.9635 132.264 18.3235C131.011 18.6435 129.758 18.9636 128.579 19.3636C127.768 19.6436 128.505 20.3237 129.316 20.0437C130.053 19.8036 130.79 19.5636 131.527 19.3636C131.453 19.4036 131.453 19.4836 131.379 19.5236C130.642 20.4837 129.758 21.1238 128.652 21.5238C128.505 21.2038 128.358 20.8837 127.989 20.5637C127.473 20.1237 126.221 20.5237 126.736 20.9637C127.105 21.2438 127.252 21.5638 127.326 21.9238C125.926 22.2039 124.304 22.2839 122.315 22.2439C122.094 22.2439 121.799 22.2439 121.578 22.2439C120.914 22.0038 120.62 21.6438 121.135 21.2438C121.725 20.8437 120.399 20.4437 119.883 20.8437C119.293 21.2838 119.293 21.7638 119.662 22.2039C119.219 22.2039 118.777 22.1638 118.409 22.1638C117.967 21.9638 117.967 21.6438 118.04 21.2838C118.188 20.7637 116.787 20.5637 116.64 21.0838C116.493 21.4438 116.493 21.8038 116.714 22.1238C116.272 22.1238 115.756 22.0838 115.314 22.0838C116.05 21.3638 116.345 20.5237 116.272 19.6836C116.198 19.1636 114.724 19.1636 114.798 19.6836C114.871 20.4837 114.503 21.3238 113.692 22.0038C113.397 22.0038 113.176 21.9638 112.882 21.9638C112.882 21.9638 112.882 21.9238 112.808 21.9238C112.439 21.7238 112.366 21.3638 112.366 21.0838C112.366 20.5637 110.892 20.5637 110.892 21.0838C110.892 21.3638 110.965 21.6038 111.113 21.8838C110.892 21.8838 110.671 21.8438 110.523 21.8438C110.081 21.8038 109.565 21.7638 109.049 21.7238C109.344 21.2438 109.565 20.7637 109.565 20.2437C109.565 19.7236 108.091 19.7236 108.091 20.2437C108.091 20.7237 107.87 21.2038 107.502 21.6438C106.617 21.6038 105.733 21.5638 104.849 21.5638C104.849 21.5638 104.849 21.5638 104.849 21.5238C104.701 21.3238 104.628 21.0838 104.48 20.8837C104.112 20.1637 104.554 19.4036 104.922 18.7235C105.217 18.2435 103.817 18.0035 103.522 18.5235C103.006 19.3636 102.564 20.2437 103.08 21.1238C103.08 21.1638 103.08 21.1638 103.154 21.1638V21.2038C103.227 21.2838 103.301 21.4038 103.301 21.4838C101.827 21.7238 100.28 21.8838 98.732 22.0438C99.2478 21.2038 99.3215 20.2837 99.1741 19.3636C99.1004 18.8436 97.6265 18.8436 97.7002 19.3636C97.8476 20.3237 97.7739 21.2438 97.1106 22.1638C95.4156 22.2839 93.6469 22.3239 91.9519 22.3639C92.173 21.8038 92.0993 21.2038 92.0993 20.6437C92.0993 20.1237 90.6254 20.1237 90.6254 20.6437C90.6254 21.2438 90.7728 21.8438 90.478 22.4039C88.783 22.4039 87.0879 22.4039 85.3929 22.3639C86.351 21.6438 87.0142 20.8037 87.2353 19.8836C87.3827 19.3636 85.9826 19.1636 85.8352 19.6836C85.6141 20.6437 84.8034 21.5238 83.698 22.2439L83.6243 22.2839C83.2558 22.2839 82.961 22.2439 82.5925 22.2439C82.1504 21.6838 81.9293 21.0838 82.1504 20.4837C82.2978 19.9637 80.8975 19.7636 80.7501 20.2837C80.6028 20.9637 80.6765 21.5638 81.0449 22.2039C79.7921 22.1638 78.5392 22.1238 77.2864 22.0838C76.7705 21.6038 76.3283 21.1238 76.1809 20.5637C76.0336 20.0437 74.5597 20.2837 74.7808 20.7637C74.9282 21.2038 75.223 21.6038 75.5914 22.0038C74.9282 21.9638 74.3386 21.9638 73.6754 21.9238C73.6754 21.6838 73.749 21.4438 73.8964 21.2438C74.1912 20.7637 72.7172 20.5237 72.4962 21.0438C72.3488 21.3238 72.2751 21.6038 72.2751 21.8838C71.6856 21.8838 71.096 21.8438 70.5064 21.8438C70.5064 21.2838 70.5064 20.7237 70.2853 20.1637C70.0642 19.6436 68.664 19.8836 68.8851 20.3637C69.1062 20.8437 69.1062 21.3238 69.1062 21.8438C68.9588 21.8438 68.8114 21.8438 68.664 21.8438C66.969 21.8438 65.274 21.8038 63.579 21.8038C64.537 21.0438 65.4951 20.3637 65.5688 19.4036C65.5688 18.8836 64.0949 18.8836 64.0949 19.4036C64.0212 20.3637 62.7683 21.0438 61.8102 21.8038C59.8942 21.8038 57.9781 21.7638 56.062 21.7238V21.4038C56.062 20.8837 54.5881 20.8837 54.5881 21.4038V21.6438C54.1459 21.6438 53.7037 21.6438 53.1879 21.6438C53.2616 21.4438 53.2615 21.2038 53.2615 20.9637C53.2615 20.4437 51.7876 20.4437 51.7876 20.9637C51.7876 21.2038 51.7876 21.4038 51.714 21.6038C50.6085 21.6038 49.4294 21.5638 48.324 21.5638C47.3659 20.5637 46.7026 19.5236 46.85 18.3235C46.9237 17.8035 45.4498 17.8035 45.3761 18.3235C45.2287 19.4836 45.8182 20.5237 46.7026 21.5238C45.5972 21.5238 44.4917 21.4838 43.3863 21.4838C43.5337 21.1638 43.5337 20.8037 43.3863 20.4837C43.1652 19.9637 41.765 20.2037 41.9861 20.6837C42.1335 20.9637 42.0598 21.2438 41.8387 21.4838C41.1017 21.4838 40.4384 21.4838 39.7015 21.4438C39.7015 20.7237 40.3648 20.0437 41.028 19.4036C41.4702 18.9636 40.2174 18.5235 39.7753 19.0036C39.0383 19.7636 38.3013 20.5637 38.3013 21.4438C37.6381 21.4438 36.9748 21.4438 36.3115 21.4438V21.2438C36.3115 20.7237 34.8376 20.7237 34.8376 21.2438V21.4438C34.6165 21.4438 34.3955 21.4438 34.2481 21.4438C34.1744 20.8837 33.8795 20.3637 32.9952 20.0437C32.7004 19.9237 32.1845 20.0037 31.9634 20.2037C31.7423 20.4037 31.8897 20.6037 32.2582 20.7637C32.6267 20.9237 32.7741 21.2038 32.7741 21.4838C31.8161 21.4838 30.858 21.4838 29.9 21.4838C29.9737 21.0037 30.1947 20.5237 30.4895 20.0437C30.858 19.5636 29.3841 19.3636 29.0893 19.8436C28.7209 20.3637 28.4998 20.9237 28.4261 21.4838C28.205 21.4838 27.9839 21.4838 27.7628 21.4838C27.8365 21.3638 27.7628 21.2438 27.5417 21.1238C27.2469 20.9637 26.8784 20.7637 26.8047 20.5237C26.8047 20.0037 25.2571 20.0037 25.3308 20.5237C25.3308 20.9237 25.6993 21.2038 26.1415 21.4838C23.7832 21.5238 21.4249 21.6438 19.0666 21.6438C19.1403 21.4438 19.3615 21.2438 19.6562 21.0438C20.3195 20.6837 19.2877 20.1237 18.6245 20.4837C18.0349 20.8037 17.6664 21.2038 17.519 21.6438C16.7821 21.6438 15.9714 21.6038 15.2345 21.6038V21.0438C15.2345 20.5237 13.7606 20.5237 13.7606 21.0438V21.5238C13.2447 21.4838 12.7288 21.4438 12.213 21.3638C11.476 21.2838 10.739 21.1638 10.0758 21.0438C10.1495 20.9637 10.2232 20.8437 10.2969 20.7637C10.4443 20.5637 10.3706 20.3237 10.0021 20.2037C9.70731 20.0837 9.19142 20.1637 8.97034 20.3637C8.82294 20.4837 8.74923 20.6037 8.67553 20.7637C7.34901 20.4037 6.24357 19.9637 5.35922 19.3236C5.28552 19.2836 5.21188 19.2036 5.13819 19.1636C5.50667 19.2836 6.09616 19.2436 6.16986 18.9636C6.39094 18.2835 6.98056 17.7635 7.79122 17.2434C8.45448 16.8834 7.42272 16.3233 6.75946 16.6834C5.72772 17.2434 4.99072 17.9635 4.69594 18.7235C4.18007 17.9235 4.69601 17.0434 4.76971 16.2033C5.06449 16.0433 5.50667 15.9633 5.87514 15.9633C6.83319 15.9633 6.83319 15.1632 5.87514 15.1632C5.35927 15.1632 4.91708 15.2432 4.4749 15.3633C4.10643 14.8432 3.59055 14.4432 3.73795 13.8431C4.18012 12.403 4.32748 11.1629 4.25378 9.68276C4.18009 8.72268 6.0225 7.8026 5.65402 6.96253C5.35924 6.24246 4.40117 3.56223 7.20162 3.60224C8.08597 3.60224 8.52816 3.2422 8.60186 2.88217C9.41251 2.48214 11.1075 2.72216 11.9918 2.72216C13.4658 2.76216 15.0871 2.36213 16.4136 2.12211C20.3195 1.40204 24.5938 1.84208 28.5734 2.12211C36.9748 2.72216 45.3024 2.20211 53.63 1.96209C61.8103 1.72207 69.9905 2.56215 78.2445 2.52214C87.088 2.48214 95.9315 2.36213 104.701 2.20211C113.176 2.0421 121.946 1.88209 130.347 2.68216C131.6 2.80217 133.074 2.92218 133.885 3.52223C134.843 4.20229 134.622 5.5224 134.843 6.36248C135.433 8.68268 134.769 11.0429 134.253 13.5231ZM92.2467 46.966C92.6152 49.3662 92.2467 51.7664 91.6571 54.1266C90.6253 58.247 90.6254 62.4473 90.6254 66.6077C90.6254 66.7677 90.6991 66.8877 90.7728 67.0077C90.1095 72.4082 90.478 77.8087 90.8465 83.2091C90.9938 85.4893 90.9202 87.8095 90.6991 90.0897C90.6254 91.2898 90.3306 92.73 88.3408 93.49C86.7195 94.0901 84.4349 94.0501 82.5925 94.0501C78.3919 93.9701 74.707 93.13 74.2649 90.6898C73.9701 88.8896 74.8545 87.0095 75.223 85.2093C76.3284 79.5688 75.5178 73.6883 75.5178 68.0478C75.5178 67.8478 75.444 67.6878 75.223 67.5678C74.486 63.4874 75.4441 59.4471 75.5178 55.3667C75.5178 53.6866 75.444 52.0064 75.223 50.3263C75.0756 49.1662 73.8964 44.5658 77.5075 44.4058C78.3919 44.3658 79.2762 44.3658 80.2342 44.2858C81.4134 45.6859 84.9508 45.2058 86.4984 44.1258C86.4984 44.1258 86.4984 44.1258 86.5721 44.1258C87.6039 44.2458 88.5619 44.2458 89.5937 44.2458C92.5415 44.2858 92.0993 46.0859 92.2467 46.966ZM143.834 21.9238C143.834 23.684 143.539 25.4441 143.392 27.2043C143.244 28.9244 143.834 31.0446 141.402 32.4047C140.223 33.0848 138.38 33.3648 136.833 33.6448C134.032 34.1649 131.158 34.5649 128.358 35.085C122.978 36.0851 117.598 37.0451 112.071 37.8852C107.06 38.6853 102.048 39.2053 97.0369 39.8054C92.9836 40.3254 88.8567 41.0855 85.9089 42.7256C85.6141 42.9256 85.4667 43.1657 85.5404 43.4057C84.7297 44.0457 82.5188 44.6858 81.7081 43.9257C82.0029 43.8457 82.2978 43.7257 82.5189 43.6057C83.2558 43.1657 83.6243 42.7656 84.1401 42.2456C85.0245 41.1655 86.8669 40.9255 88.7093 40.4854C92.0993 39.6854 95.784 39.2853 99.3951 38.8853C103.375 38.4453 107.133 37.7652 110.892 37.0851C117.009 36.005 123.199 35.165 129.463 34.3249C133.443 33.7649 138.454 32.8448 140.002 30.5246C141.918 27.7243 140.812 24.6441 140.739 21.7238C140.665 19.0436 140.886 16.2033 137.128 14.1632L137.054 14.1231C137.201 13.6831 137.349 13.2031 137.422 12.723C143.686 14.1632 143.908 18.7235 143.834 21.9238Z" fill="#649BE3"/>
</svg>
