<svg width="137" height="60" viewBox="0 0 137 60" fill="none" xmlns="http://www.w3.org/2000/svg">
<path d="M135.683 48.3744C134.135 44.494 125.513 44.374 119.543 43.694C115.122 43.1739 110.7 42.8139 106.278 42.4138C101.783 42.0138 96.8451 41.8938 92.5707 41.1737C92.7181 40.0936 93.4551 39.1736 92.7918 37.9735C92.0549 36.4533 88.5174 35.0132 89.4017 33.3731C91.2441 30.0528 93.5287 26.8925 94.4131 23.4522C95.1501 20.612 95.2975 17.6117 93.1603 14.9315C90.9494 12.1312 86.0118 10.4911 83.3587 7.93086C83.5798 7.2508 83.5798 6.57074 82.6217 6.0507C80.7794 5.05061 77.7578 5.53065 75.6943 4.73058C70.6093 2.77041 64.1978 1.61031 58.081 1.17027C50.7851 0.650228 43.4892 0.410206 36.3407 1.25028C29.6344 2.01034 22.5596 3.53048 16.7376 5.49065C7.15714 8.77093 0.598228 15.5315 0.0823569 21.572C-0.0650348 23.0922 0.377132 24.6123 1.04039 26.0924C2.14583 28.5326 2.588 30.9329 2.73539 33.4531C2.80909 35.5333 2.36691 37.6134 2.36691 39.6936C2.36691 41.4938 3.91453 42.8539 4.94627 44.534C4.65148 45.8542 5.38847 46.7742 7.59935 47.4543C10.105 48.2544 14.4531 48.9744 17.3272 49.0544C19.317 49.1344 20.9383 48.5744 22.7807 49.1344C24.4757 49.6545 26.0233 49.4945 27.7183 49.1344C29.1185 48.8544 31.6242 49.7745 33.2455 49.6945C33.7614 49.6545 34.1299 49.5345 34.6457 49.4145C35.6775 49.0944 36.267 49.8145 37.0777 49.9745C38.6253 50.2945 39.657 50.2545 41.2047 49.9345C42.9734 49.5345 45.2579 51.0146 47.1003 51.0546C52.6275 51.2146 58.2284 52.4147 63.6819 52.9748C68.251 53.4548 73.3361 54.7349 77.9789 53.9749C81.9585 53.3748 85.5696 51.4146 88.5911 49.9745C88.6648 49.9345 88.7385 49.8945 88.7385 49.8545C88.9596 49.7745 89.1806 49.6545 89.4017 49.5345C94.5604 50.3745 99.9403 50.6546 105.099 51.3346C110.331 52.0147 115.49 52.6547 120.87 52.6947C120.87 53.5748 120.796 54.4949 120.649 55.375C120.428 56.4951 120.428 57.4952 121.238 58.4953C121.312 58.5753 121.386 58.6153 121.459 58.6553C121.459 58.6953 121.533 58.7353 121.533 58.7753C122.418 59.6953 123.597 60.0154 125.365 59.6153C126.25 59.4153 126.913 58.8153 127.503 58.4152C128.313 57.8952 130.377 58.0952 131.335 57.6152C135.462 55.775 136.788 51.1346 135.683 48.3744ZM79.0106 6.97078C79.9687 7.09079 80.7056 7.33081 80.4846 7.89086C80.4109 8.09087 80.1161 8.89095 81.7374 9.531C82.0322 10.2111 82.2533 10.9311 82.5481 11.6112C83.0639 12.6913 84.022 13.6514 84.4641 14.7714C84.9063 15.8915 81.2952 18.9318 78.4211 17.5717C77.3893 17.0916 76.6524 16.4116 75.9891 15.7715C75.5469 15.0515 74.3678 11.9712 74.1467 12.0912C74.8837 11.5712 74.2204 10.9711 73.8519 10.5311C72.9676 9.451 74.2204 8.53091 72.8202 7.45082C72.5991 7.2908 72.3043 7.17079 72.0095 7.05078C74.2204 6.89077 78.9369 6.97078 79.0106 6.97078ZM69.0617 7.57082H69.1354C72.8939 7.61083 71.8622 8.89094 72.0832 10.2511C72.1569 10.5311 73.115 11.4912 72.7465 11.7312C72.2306 12.0112 72.5254 12.4513 72.6728 12.7313C72.8202 13.0913 73.7046 13.7314 73.9256 14.0114C73.9993 14.1314 73.9993 14.2114 74.073 14.3314C73.1887 13.7314 72.1569 13.2513 70.9041 12.7313C69.1354 12.0112 67.2193 11.3712 65.5243 10.5711C64.5662 10.091 63.8293 9.531 62.9449 9.05096C65.0084 8.53091 66.9982 8.01086 69.0617 7.57082ZM62.8713 8.21088C62.7976 8.17088 62.7976 8.17088 62.7239 8.13088C62.208 7.97087 61.6921 7.81085 61.2499 7.61083C61.6921 7.61083 62.1343 7.61083 62.6502 7.65083C63.0924 7.69084 63.4608 7.81085 63.8293 7.93086C63.4608 8.05087 63.166 8.13087 62.8713 8.21088ZM14.3794 8.65092C18.4327 6.41073 24.1809 5.17062 29.487 4.09053C35.3827 2.89042 41.4995 2.21036 47.7636 2.37038C46.8056 2.53039 45.8475 2.73041 44.8894 2.97043C43.0471 3.41047 41.4994 4.17053 40.2466 5.0106C38.9201 5.85068 38.7727 7.49082 37.004 8.09087C36.7829 8.17088 36.7092 8.25088 36.6355 8.37089C33.6877 9.45098 30.2977 9.33098 26.9077 9.45099C24.0335 9.531 21.0857 9.89103 18.4327 10.4911C16.0744 11.0511 13.9372 11.6112 12.0211 12.5713C11.2104 12.9713 10.6209 13.4513 9.95762 13.8914C9.51545 14.2114 9.14697 14.5314 8.85219 14.8515C8.70479 15.0115 8.4837 15.1715 8.3363 15.3315C7.59935 16.3316 6.5676 16.6116 5.24107 16.1316C7.30455 13.3313 10.4735 10.7711 14.3794 8.65092ZM5.68323 41.1737C5.53583 40.8937 5.46217 40.6137 5.38847 40.3337C5.09369 38.8135 5.53585 37.2534 5.60955 35.7733C5.90433 32.373 5.38847 29.0127 3.91455 25.7324C2.58803 22.8122 2.95648 19.9319 4.57779 17.2117C5.01996 17.3317 5.53586 17.3717 6.12543 17.2917C9.44174 16.9316 10.4735 14.7315 12.3896 13.4913C15.7796 11.3312 21.8964 10.4911 26.9077 10.2511C30.8136 10.051 34.4246 10.2511 37.7409 8.93095C37.962 8.85094 38.0357 8.77093 38.0357 8.65092C40.0992 7.77084 40.3203 6.17071 42.0153 5.09061C44.3736 3.57048 48.5006 2.85042 52.3328 2.57039C57.4178 2.81042 62.3554 3.25045 67.293 4.17053C69.9461 4.65058 72.157 5.37063 74.4415 6.21071C72.8939 6.25071 71.3463 6.33072 69.7986 6.61074C68.3247 6.85076 66.8508 7.1708 65.3769 7.53083L65.3032 7.49082C64.2715 7.29081 63.3871 6.97078 62.3554 6.85076C61.3236 6.73075 60.2919 6.89077 59.3339 7.05078C59.1128 7.09079 58.9654 7.17079 58.8917 7.2508C58.7443 7.37081 58.7443 7.53082 58.9654 7.65083C58.9654 7.65083 58.9654 7.65084 58.9654 7.69084C58.9654 7.69084 58.9654 7.69084 58.9654 7.73085C58.9654 7.73085 59.039 7.77084 59.1127 7.77084C59.1127 7.77084 59.1128 7.77084 59.1865 7.77084C59.8497 8.09087 60.5867 8.37089 61.3236 8.61091C60.9551 8.73093 60.7341 8.93095 60.9551 9.13097C61.0288 9.25098 61.2499 9.37098 61.471 9.37098C63.166 10.171 64.4926 11.1711 66.2613 11.9312C68.3984 12.8513 70.683 13.5313 72.6728 14.5714C73.4098 14.9715 74.5889 15.9315 74.8837 16.3716C75.8417 17.3317 76.9472 18.3318 78.7159 18.6518C81.3689 19.1318 84.2431 17.4917 85.5696 16.4116C86.4539 15.7315 85.8644 14.6514 85.5696 13.9714C85.2011 13.0913 84.4641 12.2512 83.8745 11.4112C83.7271 11.2511 83.6535 11.0911 83.5798 10.9311C85.7907 12.3312 88.2963 13.6114 89.9913 15.2515C93.1603 18.2518 91.8337 22.6121 90.5072 25.8124C89.8439 27.4926 88.9596 29.1327 88.0016 30.7728C87.3383 31.9329 86.3065 32.973 86.0117 34.2131C85.7906 35.2132 87.5594 36.2133 88.5174 36.9334C90.802 38.6535 89.1807 40.1337 89.4755 41.9338C89.4755 42.1738 89.6965 42.3739 89.9913 42.4939C87.7805 43.934 83.8745 44.574 81.2952 45.7341C80.1897 46.2142 78.8633 46.5342 77.3894 46.7742C77.7578 46.2942 77.8315 45.7341 77.6841 45.1341C77.5367 44.494 77.242 43.854 76.6524 43.2539C75.6207 42.2538 72.8202 40.7337 73.1887 39.9736C73.9993 38.2935 75.3996 36.8134 76.6524 35.2132C77.9052 33.6531 78.6422 31.973 79.5265 30.3328C81.1478 27.1725 81.2215 24.2923 78.937 21.172C78.5685 20.692 77.1682 20.892 77.5367 21.372C80.1161 24.8923 79.1581 27.9326 77.3894 31.4929C75.9154 34.4132 72.8939 37.0134 71.641 39.9736C71.2726 40.8537 73.2624 42.1338 74.3678 42.8939C75.5469 43.694 77.9789 46.5342 74.81 46.9342C74.7363 46.9342 74.6626 46.9742 74.5889 46.9742C71.4937 47.1343 68.2511 46.9743 65.598 46.7342C61.3974 46.3742 57.5651 45.3341 53.3645 44.8941C52.5538 44.8141 51.301 44.8941 50.564 45.0941C48.0584 45.8942 46.0686 46.2942 43.0471 46.2142C38.7727 46.0942 34.572 45.5741 30.3713 45.2941C25.9496 45.0141 21.8226 45.3741 17.4746 45.4941C15.2637 45.5341 12.6843 45.4941 10.9893 44.614C9.9576 44.094 9.36805 43.2939 8.70478 42.6539C8.11522 41.9338 7.15714 41.3338 5.68323 41.1737ZM76.2839 52.6547C74.073 52.9748 70.6093 52.2547 68.4721 51.9747C66.2613 51.6947 64.1241 51.4546 61.9132 51.2146C57.8599 50.7746 53.8803 49.9345 49.9008 49.6145C47.9847 49.4545 46.5108 49.2144 44.8158 48.6944C43.7103 48.3344 42.4575 48.0943 41.2047 48.2944C39.2886 48.6144 38.6253 48.4544 37.004 47.8943C35.9722 47.5743 35.309 47.6143 34.2035 47.7343C33.8351 47.8143 33.4666 47.9343 33.2455 48.0543C32.4349 48.3744 31.182 47.8543 30.5187 47.6943C29.2659 47.4143 28.3816 47.4543 27.055 47.6143C24.9915 47.8943 23.5913 47.3743 21.6752 47.1743C20.0539 47.0142 18.6537 47.5743 16.8113 47.4143C14.6742 47.2143 7.52565 46.4142 7.96783 44.8141C7.96783 44.7341 7.96783 44.694 7.96783 44.654C8.04152 44.534 8.04152 44.374 7.96783 44.174C7.59935 43.4939 7.00978 42.8539 6.49391 42.2138C8.26261 42.9339 9.44172 44.7741 10.8419 45.4941C12.8317 46.4942 16.5165 46.4142 19.0222 46.3342C23.8861 46.2142 28.3079 45.9742 33.1718 46.3342C37.8147 46.6942 42.5312 47.2943 47.174 47.0943C48.2058 47.0543 49.1638 46.7342 49.9745 46.4542C53.2908 45.3341 56.0912 46.0942 59.3339 46.6542C63.9767 47.4943 68.4721 47.8143 73.4098 47.7743C73.9993 47.7743 75.8417 47.7343 77.9789 47.4943C80.0424 48.6144 83.5798 48.6544 86.6013 48.8144C86.2329 48.8944 80.5583 52.0547 76.2839 52.6547ZM105.983 49.8545C100.53 49.0544 80.8531 48.2144 79.4528 47.2143C80.4846 47.0143 81.5163 46.6942 82.4744 46.2542C85.3485 45.0141 89.4755 44.294 91.6864 42.6539C94.2657 43.0939 96.7714 43.2539 99.4245 43.3739C102.446 43.5339 105.32 43.934 108.342 44.174C114.901 44.654 121.533 45.4541 127.871 46.3742C128.755 46.4942 129.492 46.6542 130.082 46.8542C125.218 47.5743 121.238 48.1744 115.859 47.4943C111.805 46.9743 107.605 46.2142 103.478 46.0542C103.183 46.0542 103.036 46.0942 102.888 46.2142C101.267 46.5742 99.9403 47.0143 98.7612 47.7343C98.3927 47.9743 98.5401 48.2944 99.056 48.4144C105.468 49.8545 114.385 49.0944 120.354 51.1746C115.49 51.0946 110.7 50.5746 105.983 49.8545ZM131.851 54.0549C131.556 54.6949 131.04 55.335 130.45 55.935C129.566 56.8551 128.24 56.4151 127.06 56.7751C126.25 57.0151 124.186 58.1352 124.113 58.0952C124.039 58.0152 123.965 57.9752 123.891 57.9352C123.891 57.8952 123.818 57.8552 123.818 57.7752C123.081 56.8151 123.597 55.695 123.744 54.6949C123.891 53.6948 123.891 52.6547 123.891 51.6547C123.891 51.0946 123.007 50.8546 122.196 50.8946C116.301 48.3744 107.457 49.0944 100.53 47.8543C101.414 47.4543 102.299 47.1743 103.478 46.9342C103.551 46.9342 103.625 46.8942 103.625 46.8942C108.784 47.0943 114.016 48.2144 119.101 48.6944C123.302 49.0944 127.503 48.0943 131.482 47.4943C132.44 48.0943 132.809 48.8944 132.809 50.0545C132.956 51.3746 132.514 52.7347 131.851 54.0549Z" fill="#649BE3"/>
</svg>
