<svg width="163" height="87" viewBox="0 0 163 87" fill="none" xmlns="http://www.w3.org/2000/svg">
<path d="M158.363 37.5931C155.932 36.753 152.91 36.513 149.815 36.633C150.773 36.193 151.657 35.7129 152.32 35.1129C154.973 32.9127 152.173 30.7925 148.341 29.9524C143.035 28.7523 136.328 29.4324 131.022 30.1524C127.337 30.6725 123.874 31.5126 120.336 32.2326C124.095 31.2726 127.927 29.9524 131.022 28.5123C136.844 25.7921 133.086 21.7517 125.864 21.7117C125.716 21.7117 125.569 21.7117 125.421 21.7517C125.274 21.7517 125.127 21.7117 124.979 21.7117C118.641 21.7517 113.188 23.0718 107.955 24.912C102.944 26.6721 98.0065 28.5123 92.9952 30.3125C90.7106 31.1525 88.2786 32.0326 85.6256 32.4327C82.6041 32.8727 80.688 30.1924 78.1087 29.7124C75.2345 29.1524 72.8762 29.8324 70.5916 28.1923C69.1177 27.1522 65.0644 25.592 65.4329 24.3119C66.5383 20.3916 67.6438 16.5913 68.0123 12.6309C68.2333 9.8707 69.1178 6.7504 66.9806 4.15017C65.2119 1.98999 60.4953 0.109842 55.8524 0.669891C54.2311 0.869908 51.136 1.54998 49.6621 3.03011C49.5884 3.07011 49.5883 3.11008 49.5146 3.15009C48.1144 5.23027 47.009 7.31046 46.3457 9.51065C46.1984 9.99069 46.1246 10.5107 46.0509 10.9908C45.9035 9.91066 45.8298 8.83058 45.535 7.75049C44.8718 5.15026 40.7448 3.39014 35.8072 3.83017C29.543 4.39022 26.8163 6.99041 26.3004 10.1907C26.0056 12.2709 26.5215 14.4311 26.6689 16.5113C26.89 19.3115 27.0374 22.0717 27.7743 24.872C28.2902 27.1122 29.1009 29.3124 29.4694 31.5526C29.6905 32.6326 29.6905 33.7127 29.3957 34.7528C29.1746 35.7529 27.9955 36.633 27.9218 37.6331C27.8481 38.7132 28.0691 39.7932 28.1428 40.8733C28.2902 42.9135 27.7006 40.7134 27.3322 40.0333C26.6689 38.7532 26.2268 37.3931 25.7109 36.113C24.3107 32.5927 22.0261 23.7919 12.9615 23.4719C12.7404 23.3919 12.4456 23.3518 12.1508 23.3518C4.56016 23.4318 0.727959 27.4322 0.433175 31.1125C0.212088 33.9928 3.23362 36.833 3.74949 39.6732C3.97058 40.9533 4.11795 42.1935 4.56013 43.4336C5.076 44.9537 6.40256 46.3938 6.99213 47.914C8.17126 50.9943 7.13954 54.1945 7.65541 57.2748C8.02389 59.635 10.0873 61.8352 11.856 63.9554C16.7937 69.6359 17.3833 75.3964 13.9196 81.4369C13.5511 82.077 14.5828 82.477 15.5408 82.3969C15.7619 82.477 16.0567 82.557 16.4251 82.557C21.4365 82.517 26.7426 82.157 31.5328 83.2371C31.5328 83.4771 31.7539 83.6771 32.2698 83.8371C33.3015 84.1171 34.3333 84.3572 35.365 84.5572C37.2811 84.9172 38.2391 85.5172 39.6393 86.2773C41.1133 87.0773 43.5453 87.0774 45.2403 86.5173C48.5566 85.4772 50.9886 84.1171 54.8208 83.5171C59.4636 82.797 64.1801 83.197 68.8967 83.477C72.7289 83.677 75.9715 83.397 79.5089 82.677C83.7096 81.7969 88.0576 81.3169 92.4057 80.7168C97.0485 80.0768 101.397 79.4367 106.187 79.4767C110.535 79.5167 114.883 80.1967 119.305 80.2767C124.684 80.3968 131.98 79.5968 134.265 76.5565C136.328 73.8363 134.118 70.7159 129.696 69.0758C121.368 65.9955 110.535 67.0757 100.807 67.7557C103.828 66.7957 106.997 66.0356 110.093 65.2355C115.694 63.7554 121.737 62.7953 127.927 62.4353C133.086 62.1152 138.244 61.8752 143.33 61.5152C146.867 61.2351 150.404 60.9951 153.573 59.995C159.322 58.1949 159.616 53.7945 154.236 51.7544C151.215 50.6343 147.972 50.2342 144.435 49.9941C141.561 49.7941 133.675 50.2342 132.349 50.3942C136.255 49.3141 140.603 49.3141 144.582 48.7541C150.404 47.994 157.258 46.9539 160.648 44.0337C163.448 42.0335 162.122 38.9132 158.363 37.5931ZM125.79 28.5523C125.79 28.5923 125.79 28.6723 125.79 28.7123C124.684 29.1124 123.505 29.5124 122.253 29.8724C121.442 28.8323 123.947 27.7122 126.011 27.5122C126.011 27.8322 125.937 28.1923 125.79 28.5523ZM71.1812 30.6725C71.5497 30.8325 71.9918 30.9125 72.434 30.9925C70.1494 32.0726 68.6755 33.5927 66.4647 34.7128C62.7799 36.593 57.4738 37.9531 53.1257 39.3932C47.8196 41.1934 35.8809 44.9137 31.4591 40.7933C31.4591 40.0733 31.238 39.3133 31.1643 38.8332C31.0169 37.9931 31.3854 37.2731 31.8276 36.513C32.712 36.633 33.8911 36.433 34.7018 36.313C36.2494 36.073 37.797 35.6729 39.0498 35.1129C40.4501 34.5128 40.3763 33.6727 39.6393 32.9527C41.5554 32.4326 43.3979 31.8726 45.3877 31.3925C51.4307 29.8324 57.3264 28.0723 63.5905 26.7121C64.1064 26.9922 64.696 27.1922 65.5804 27.4322C67.7912 27.9923 69.044 29.8724 71.1812 30.6725ZM32.2698 35.7929C32.2698 35.7529 32.3435 35.7129 32.3435 35.6729C32.3435 35.6329 32.3435 35.6329 32.3435 35.5929C32.4909 35.4329 32.712 35.2729 32.933 35.1529C33.0804 35.0729 33.0805 34.9929 33.0805 34.9129C34.1859 34.3928 35.6598 34.0328 36.9863 33.7127C37.4285 33.5927 37.8707 33.4727 38.3129 33.3527C38.7551 33.7927 38.8287 34.1928 38.0181 34.5928C37.2074 34.9928 36.102 35.2329 35.0702 35.4329C34.3333 35.5929 33.5226 35.7129 32.7857 35.7529C32.6383 35.7929 32.4172 35.7929 32.2698 35.7929ZM29.4694 12.5909C29.2483 10.4307 29.1746 7.99054 32.3435 6.4304C35.3651 4.91027 40.3763 5.11028 42.4398 7.07045C43.1031 7.7105 43.1768 8.71056 43.1768 9.59064C42.8083 8.87057 42.145 8.15053 41.1133 7.71049C40.7448 7.55048 40.3764 7.67051 40.1553 7.83052C40.0079 7.87053 39.9342 7.91049 39.8605 7.9905C39.492 8.43054 39.0499 9.39063 38.9762 10.3507C38.9762 9.43063 38.6077 8.51058 37.9444 7.83052C37.8707 7.79052 37.797 7.71049 37.7233 7.71049C37.9444 7.23045 36.4704 6.99043 36.323 7.51048C36.1756 7.91051 36.0283 8.35054 35.8809 8.75057C35.8809 8.55056 35.5861 8.43054 35.2914 8.39053C35.3651 8.19051 35.144 7.91051 34.6281 7.91051C34.3333 7.91051 34.1122 7.99052 34.0385 8.11053C33.8911 8.15053 33.8174 8.19054 33.7437 8.27055C33.7437 8.27055 33.7437 8.27055 33.67 8.27055C31.4591 9.07062 28.3639 12.0309 32.1961 12.7509C33.8174 13.0309 35.2176 12.5509 35.7335 11.7508C35.7335 11.7108 35.7335 11.6709 35.8072 11.6309C35.9546 12.0709 36.2494 12.5109 36.6178 12.8709C36.9126 13.151 37.6496 13.111 37.8707 12.8709C38.4603 12.3109 38.8287 11.5508 38.8287 10.7507C38.8287 12.2309 39.492 13.591 41.8502 13.311C42.7346 13.191 43.1768 12.7909 43.3979 12.3109C43.5453 13.191 45.1665 15.8712 45.535 16.9513C47.0826 20.2316 46.0509 23.7119 46.9353 27.0322C47.0826 27.5522 48.4829 27.3122 48.3355 26.8322C47.4511 23.5919 48.4092 20.1916 47.0089 16.9913C46.1246 14.4711 50.6938 6.11033 52.3151 3.79013C52.6836 3.35009 54.01 2.71008 55.484 2.43005C56.8105 2.15003 58.0633 2.27004 59.4636 2.43005C62.8536 2.83009 64.4012 4.55024 65.0644 6.23038C66.1699 9.07063 65.2119 12.4309 64.8434 15.3112C64.5486 17.3913 64.0327 19.4715 63.4432 21.5117C63.0747 22.7518 62.1166 24.2319 62.4114 25.512C62.4851 25.7121 62.5588 25.9121 62.6325 26.0721C55.9999 27.5122 49.662 29.4324 43.1768 31.0725C40.229 31.8326 37.4285 32.6727 34.5544 33.4727C33.8911 33.6728 33.2278 33.8728 32.6382 34.0728C32.7119 33.6328 32.6382 33.1927 32.6382 32.7527C32.4908 28.1923 30.2063 23.7119 29.7642 19.1515C29.7642 16.9513 29.6168 14.7511 29.4694 12.5909ZM41.4817 12.5509C40.2289 12.8309 40.5238 9.79068 40.8922 8.67059C41.4818 9.11062 41.7766 9.79068 41.924 10.2707C42.1451 10.7908 42.6609 12.3109 41.4817 12.5509ZM37.2074 11.5108C36.9127 10.7908 36.9864 9.99071 37.1338 9.23064C37.5022 9.95071 37.5022 10.7908 37.2074 11.5108ZM33.3015 11.9908C30.0589 12.1509 33.3015 9.39063 34.407 8.95059C34.5543 9.87067 35.2176 11.9108 33.3015 11.9908ZM33.0805 79.4767C32.8594 80.1167 32.4172 80.7569 31.9013 81.3569C31.1643 81.3569 30.5011 81.3169 29.7642 81.3169C29.5431 81.2769 29.322 81.2769 29.1746 81.2369C29.3957 80.9569 29.6168 80.6768 29.7642 80.3968C29.9853 79.9167 28.585 79.6767 28.3639 80.1968C28.2165 80.5168 27.9954 80.8368 27.7006 81.1169C27.0374 81.0769 26.3742 81.0369 25.7109 81.0369C25.8583 80.8769 25.9319 80.7169 26.0056 80.5569C26.3004 80.0768 24.9002 79.8768 24.6055 80.3568C24.4581 80.5569 24.3106 80.7968 24.1632 80.9968C23.1315 80.9968 22.0998 80.9968 21.068 80.9968C21.4365 80.6368 21.805 80.2768 22.1735 79.9568C22.6893 79.5168 21.3628 79.1167 20.9207 79.5568C20.4048 80.0368 19.8889 80.5168 19.373 81.0369C18.7834 81.0369 18.1939 81.0369 17.6044 81.0369C17.678 80.9569 17.678 80.8369 17.7517 80.7569C17.8254 80.7169 17.8991 80.6369 17.9728 80.5569C18.2676 79.9968 18.7835 79.5168 19.0783 78.9567C19.152 78.7567 19.0046 78.5966 18.7098 78.5166C19.2257 77.0365 19.5204 75.5564 19.5941 74.0363C20.4048 73.2362 20.9206 72.3161 21.2154 71.396C21.3628 70.876 19.9626 70.6759 19.8152 71.196C19.7415 71.436 19.6678 71.676 19.5204 71.9161C19.4467 71.196 19.2994 70.5159 19.0783 69.7959C19.4467 69.8359 19.8889 69.7159 19.8889 69.4359V68.1157C19.8889 67.5957 18.415 67.5957 18.415 68.1157C18.415 68.0757 18.415 68.0357 18.3413 67.9957C17.3833 65.9555 15.4671 64.0354 13.8458 62.1152C11.4875 59.355 10.8243 56.8747 10.898 53.8745C10.9717 51.3142 11.0454 48.634 9.57148 46.1938C8.76083 44.7537 7.87644 43.3936 7.50796 41.9135C7.21318 40.6334 7.21318 39.3132 6.771 38.0731C5.81296 35.4329 3.30733 32.8327 4.04429 30.0724C4.63386 27.7522 7.21323 25.392 11.7087 25.032C11.9298 25.072 12.1509 25.112 12.4456 25.112C17.2359 24.952 19.2993 28.5523 20.4784 30.4725C22.2471 33.2727 23.2052 36.1929 24.3843 39.0732C24.8265 40.2333 26.4478 44.4336 30.0589 43.2735C30.8695 43.0335 31.3117 42.5935 31.5328 42.0734C36.1019 44.8337 44.7244 42.8735 50.0305 41.3934C54.0101 40.2733 57.7686 38.8732 61.6008 37.5931C58.137 39.4732 54.7471 41.3534 52.3151 43.6336C52.094 43.6736 51.8729 43.7536 51.7992 43.9136C51.7255 44.0336 51.7255 44.1536 51.6518 44.2736C51.2833 44.6737 50.9148 45.1137 50.62 45.5138C48.925 47.914 49.7357 50.9942 55.484 50.9942C58.5055 50.9942 61.6745 49.7541 64.0328 48.9141C67.0543 47.834 70.0021 46.5939 72.8025 45.3538C76.561 43.6336 80.1721 41.7535 83.8569 39.9533C84.7412 39.5133 85.6256 38.9932 86.5837 38.5532C87.8365 37.9132 89.8263 36.9531 89.5315 38.5532C89.4578 39.0733 90.9317 39.0733 91.0054 38.5532C91.4476 35.953 87.9102 36.873 85.5519 37.9931C79.5826 40.7933 74.2028 43.9536 67.7912 46.4738C64.9908 47.5939 62.264 48.714 59.1688 49.5941C54.3048 50.9542 50.399 49.4742 51.6518 46.5539C51.7255 46.3139 51.8729 46.0738 52.0203 45.8738C52.2414 45.9938 52.6099 46.0339 52.9784 45.9538C55.484 45.3138 60.569 42.5536 56.9579 41.3535C59.9057 39.4733 63.5168 37.7931 66.4647 36.073C66.6121 35.993 66.6858 35.8729 66.6858 35.7929C67.5701 35.4329 68.4545 34.9929 69.2651 34.5528C71.1812 33.4327 72.4341 32.0726 74.7923 31.1925C75.603 31.2325 76.4136 31.1925 77.1506 31.1925C78.1823 31.1525 80.0984 32.5127 80.8354 32.8727C81.7934 33.3527 82.7515 33.6727 83.9306 33.9528C85.0361 34.5928 86.3625 34.9129 87.9101 35.2329C92.6267 36.273 92.332 38.4332 92.1109 40.7534C91.6687 45.2738 89.0893 49.8741 87.468 54.3145C85.8467 58.7149 83.4884 63.0353 78.3297 66.5956C76.8558 67.6357 74.7186 69.0359 72.213 69.5559C71.9182 69.5159 71.6234 69.5558 71.4023 69.6758C70.8865 69.7558 70.2969 69.7559 69.781 69.7159C69.1177 69.6759 68.5282 69.5559 67.8649 69.4359C67.7175 69.3159 67.4227 69.2758 67.1279 69.2758C64.9171 68.7558 62.8536 67.8757 60.7901 67.3957C59.9058 67.1956 59.1688 67.8757 60.0532 68.0757C60.4216 68.1557 60.7164 68.2357 61.0112 68.3158C60.9375 68.3158 60.9375 68.3558 60.8638 68.3558C60.7164 68.4358 60.4954 68.5558 60.348 68.6358C59.6847 68.9958 60.7164 69.5558 61.3796 69.1958C61.527 69.1158 61.7482 68.9958 61.8956 68.9158C62.1166 68.7958 62.1166 68.7158 62.1166 68.5958C62.6325 68.7558 63.2221 68.9158 63.738 69.0758C63.4432 69.3958 63.1484 69.7159 62.7062 69.9559C62.0429 70.316 63.0747 70.916 63.738 70.5159C64.2538 70.1959 64.6223 69.8358 64.9907 69.4758C65.4329 69.5958 65.8015 69.7159 66.2436 69.7959C65.7278 70.3159 65.2118 70.796 64.6959 71.316C64.2538 71.7561 65.5067 72.1961 65.9488 71.716C66.4647 71.156 67.0542 70.6359 67.5701 70.0759C67.6438 70.1159 67.7912 70.1159 67.8649 70.1159C67.8649 70.1559 67.7912 70.1959 67.7912 70.2359C67.4964 70.916 66.9806 71.596 66.6858 72.2761C66.4647 72.7961 67.9386 72.9961 68.086 72.4761C68.3808 71.796 68.8967 71.116 69.1915 70.436C69.1915 70.396 69.1915 70.3559 69.1915 70.3159C69.781 70.3559 70.3705 70.396 70.9601 70.356C70.8864 70.636 70.8864 70.956 70.8864 71.236C70.5179 71.236 70.2231 71.356 70.2231 71.6361C70.2231 71.8761 70.0021 72.1561 69.6336 72.3561C68.9704 72.7162 70.0021 73.2762 70.6654 72.9162C70.7391 72.8761 70.8127 72.7962 70.9601 72.7562C71.0338 74.1563 71.3286 75.5564 71.2549 76.9965C71.1812 78.6766 69.8547 79.1967 67.4964 79.3568C67.6438 79.2767 67.7176 79.1967 67.7176 79.0766C67.7176 78.9566 67.6438 78.9167 67.8649 78.8367C68.6756 78.5967 67.9386 77.8766 67.1279 78.1566C66.4647 78.3567 66.2436 78.6766 66.2436 79.0766C66.2436 79.2367 66.391 79.3567 66.6121 79.3967C65.9488 79.3967 65.2119 79.4367 64.5486 79.4767C64.7697 79.2767 64.8434 79.0367 64.8434 78.7567C64.8434 78.2366 63.3695 78.2366 63.3695 78.7567C63.3695 78.8367 63.3695 79.0367 63.2958 79.0367C63.0747 79.1967 63.0009 79.3968 63.222 79.5568C62.7799 79.5968 62.2641 79.6367 61.8219 79.6767C61.8956 79.6367 61.8956 79.5567 61.8956 79.5167V79.2367C61.8956 78.7167 60.4216 78.7167 60.4216 79.2367V79.5167C60.4216 79.6367 60.4953 79.7567 60.6427 79.7967C60.4953 79.7967 60.3479 79.8368 60.2005 79.8368C59.3162 79.9168 58.4318 80.0368 57.5475 80.1168V80.0767C57.5475 79.5567 56.0736 79.5567 56.0736 80.0767V80.2368V80.2767C54.2312 80.4768 52.3888 80.7168 50.4727 80.9168C50.4727 80.6768 50.5464 80.4368 50.9149 80.2368C51.5781 79.8768 50.5464 79.2767 49.8831 79.6767C49.2198 80.0767 48.9988 80.5568 49.0725 81.0768C48.1144 81.1568 47.1564 81.2369 46.1246 81.3169C45.9035 80.9168 45.8299 80.4768 45.9773 80.0767C46.1984 79.5567 44.7244 79.3567 44.577 79.8767C44.3559 80.3968 44.4296 80.8768 44.6507 81.3969C43.7663 81.4369 42.882 81.4369 41.9977 81.4769C41.9977 81.4769 41.9977 81.4769 41.9977 81.4369V80.8369C41.9977 80.3168 40.5238 80.3168 40.5238 80.8369V81.4369C40.5238 81.4369 40.5238 81.4369 40.5238 81.4769C39.7131 81.4769 38.9761 81.4769 38.1654 81.4369C38.3128 81.1969 38.0918 80.8768 37.5022 80.8768C36.9127 80.8768 36.6916 81.1568 36.839 81.3969C35.8072 81.3569 34.7754 81.3569 33.7437 81.3169C34.1859 80.7568 34.5543 80.1968 34.7754 79.6367C34.7017 79.1967 33.2279 78.9566 33.0805 79.4767ZM52.7572 44.9538C52.7572 44.7137 52.7572 44.5136 52.8309 44.2736C53.5679 43.4736 54.526 42.7135 55.5577 41.9935C57.6212 42.6735 54.6733 44.2337 52.7572 44.9538ZM154.015 57.9148C152.689 58.8349 150.478 59.275 148.341 59.515C147.972 59.0749 148.12 58.5549 148.488 58.1149C149.815 57.8348 153.278 57.1148 154.015 57.9148C154.015 57.8748 154.015 57.8748 154.015 57.9148ZM150.183 46.3138C149.888 46.3538 149.594 46.4338 149.299 46.4738C149.078 46.3138 148.93 46.1538 149.373 45.9938C150.036 45.7938 150.92 45.7538 151.657 45.7138C152.173 45.6738 152.615 45.6737 153.131 45.6737C152.026 45.9538 151.068 46.1538 150.183 46.3138ZM148.857 41.0334C150.699 40.7134 154.9 40.8734 153.205 42.0335C152.468 42.5535 150.92 42.4335 149.815 42.3135C149.225 42.2335 148.636 42.1135 148.193 41.9135C147.751 41.7134 148.193 41.5934 148.562 41.4734C148.857 41.3534 148.93 41.1934 148.857 41.0334ZM153.942 43.5936C152.984 44.1536 151.141 44.4737 149.667 44.3937C150.773 43.8336 152.394 43.6336 153.942 43.5936ZM158.511 43.2735C157.921 43.9536 156.89 44.4737 155.637 44.9538C154.679 44.9538 153.721 44.9538 152.763 44.9538C153.868 44.7137 154.9 44.3537 155.489 43.8336C155.637 43.7136 155.637 43.5936 155.563 43.5136C156.005 43.3136 155.858 42.7935 155.121 42.7935C154.752 42.7935 154.31 42.7936 153.868 42.8336C155.489 42.0735 155.342 40.9134 153.426 40.3933C151.731 39.9533 149.078 39.9133 147.456 40.5534C147.088 40.6734 147.088 40.9133 147.235 41.0733C146.056 41.6734 146.425 42.4735 148.12 42.9135C148.783 43.0736 149.594 43.2335 150.404 43.2735C149.373 43.5136 148.415 43.9136 147.825 44.4736C147.678 44.6337 147.751 44.9137 148.12 45.0338C148.562 45.1138 149.004 45.1938 149.446 45.2338C147.825 45.4738 147.309 46.1138 147.899 46.7939C133.381 48.154 121.073 51.9943 118.789 52.7144C117.978 52.9944 118.715 53.6745 119.526 53.3944C121.589 52.7544 125.864 51.8343 128.296 51.6743C130.949 51.4342 134.56 51.7543 138.318 51.6343C142.519 51.5143 147.088 51.5543 150.994 52.5144C154.679 53.4345 156.668 55.3146 154.9 57.1948C153.352 56.4747 149.815 57.0347 147.751 57.4748C147.678 57.4748 147.53 57.5149 147.456 57.5549C147.309 57.5949 147.162 57.6748 147.162 57.7948C146.572 58.3949 146.425 59.115 146.793 59.755C146.056 59.8351 145.319 59.875 144.656 59.915C135.591 60.6351 126.232 60.6751 117.389 62.1152C113.335 62.7553 109.577 63.7953 105.745 64.7954C101.765 65.8755 97.8591 66.8756 94.3954 68.4358C93.4374 68.8758 94.1744 69.8359 95.4272 69.7959C105.081 69.4358 115.399 67.8357 124.906 69.5559C130.949 70.676 135.591 75.0363 129.401 77.5965C123.505 79.9967 114.367 78.3966 107.734 78.0366C100.881 77.6766 94.3217 78.9567 87.8365 79.8368C84.3728 80.2768 81.1302 80.8368 77.7402 81.5169C73.9817 82.317 70.2232 82.117 66.391 81.8369C60.4216 81.4769 53.7153 81.5569 48.5566 83.477C47.3038 83.9571 46.1246 84.5171 44.7981 84.9972C42.882 85.7172 41.6292 85.1172 40.3026 84.3572C38.755 83.4771 36.3967 83.197 34.407 82.717C34.407 82.517 34.2596 82.357 33.9648 82.237C38.5339 82.317 43.1031 82.397 47.5985 82.117C53.3468 81.7169 58.9477 80.7168 64.7697 80.3968C66.9069 80.2768 70.739 80.6368 71.6234 79.1167C73.171 76.2764 71.5497 73.2762 72.0655 70.356C72.9499 70.196 73.8343 69.9159 74.7923 69.5159C81.2776 66.5156 84.8886 62.2752 87.0258 57.8748C88.2787 55.2746 89.0893 52.5944 90.0473 49.9941C91.0054 47.3939 92.1846 44.8737 92.8478 42.2735C93.2163 40.7133 94.1007 37.8731 92.4057 36.393C90.9317 35.1129 88.1313 34.8728 85.9941 34.1928C88.7945 33.9528 91.8161 32.7527 93.6585 32.0726C98.0065 30.5525 102.355 29.0323 106.629 27.3922C112.156 25.272 117.904 23.4318 124.906 23.3918C125.053 23.3918 125.2 23.3918 125.348 23.3518C125.495 23.3918 125.642 23.3918 125.79 23.3918C128.001 23.3918 130.138 23.8719 131.022 25.072C131.833 26.2321 128.959 27.4722 127.559 28.0323C127.485 28.0723 127.411 28.1123 127.337 28.1123C127.411 27.6322 127.411 27.1522 127.411 26.6721C127.411 26.1521 125.937 26.1521 125.937 26.6721V26.7121C122.842 26.9122 119.599 28.7123 120.926 30.2725C120.631 30.3525 120.263 30.4725 119.968 30.5525C115.472 31.9126 109.429 32.1126 106.113 34.4728C105.45 34.9129 105.597 35.6329 106.776 35.7929C111.124 36.393 117.02 34.6729 121 33.8328C127.485 32.5127 133.602 31.1125 140.603 30.9525C143.845 30.8725 151.141 31.1525 150.183 33.7527C149.741 34.8328 148.046 35.6329 145.983 36.313C145.983 35.9929 145.909 35.6729 145.688 35.3529C145.467 35.1129 145.098 34.9929 144.582 35.1129C142.961 35.5129 141.192 35.6729 139.792 36.273C138.613 36.633 138.171 37.353 138.466 37.9931C138.171 38.0331 129.917 40.0333 126.969 40.9534C121.884 42.5536 116.578 43.8736 111.493 45.4737C110.682 45.7138 111.419 46.4339 112.23 46.1539C116.504 44.7938 121.073 43.7137 125.421 42.3535C135.149 39.2733 139.497 39.3132 140.824 38.9932C145.983 38.1131 153.205 37.3531 157.184 39.1132C159.543 40.1533 159.69 41.9134 158.511 43.2735ZM116.504 33.1127C115.104 33.4327 113.483 33.7928 111.935 34.0328C113.409 33.6328 114.957 33.3927 116.504 33.1127ZM144.656 36.673C143.256 37.033 141.782 37.3931 140.455 37.6731C140.234 37.7131 140.087 37.7531 139.94 37.7531C139.866 37.4331 140.013 37.113 140.603 36.953C141.782 36.473 143.182 36.273 144.509 35.9929C144.509 36.1529 144.582 36.313 144.582 36.473C144.509 36.553 144.582 36.633 144.656 36.673Z" fill="#649BE3"/>
</svg>
