<svg width="259" height="74" viewBox="0 0 259 74" fill="none" xmlns="http://www.w3.org/2000/svg">
<path d="M257.326 49.118C255.484 44.3975 250.399 39.7971 246.714 35.4767C242.808 30.8363 238.755 26.236 234.554 21.6356C232.933 19.8754 231.017 18.3553 228.585 16.9552C225.711 15.2751 222.1 12.9948 222.984 10.5146L223.058 10.4746C225.637 7.71432 218.194 5.23414 213.846 5.11413C212.814 5.07413 211.782 5.15418 211.045 5.55421C210.234 5.91424 208.982 4.59411 207.803 4.43409C205.592 4.11407 203.381 4.19409 201.907 4.95416C199.843 4.11409 198.591 3.51396 195.422 3.67397C193.579 3.75398 192.474 4.074 191.811 4.67406C191.368 4.31403 191 3.75406 190.558 3.55404C189.673 3.074 188.715 2.87394 187.536 2.71393C183.483 2.15388 178.324 2.71396 174.197 2.75397C165.354 2.67396 156.879 1.35379 148.183 0.593722C144.719 0.313698 141.181 0.713791 137.718 0.553777C135.875 0.47377 134.107 0.47377 132.338 0.553777C130.496 0.633784 128.874 1.07376 127.105 1.19377C127.032 1.15377 126.884 1.15383 126.737 1.15383C124.6 0.953812 122.757 0.913809 120.694 1.35385C117.967 1.9539 115.388 0.91377 112.587 1.11379C111.629 1.19379 110.819 1.47386 110.008 1.75388C108.608 2.23392 106.323 1.67382 104.776 1.59381C102.639 1.4738 100.354 1.9539 98.5852 2.55395C97.2587 2.35393 95.9322 2.39394 94.4583 2.35393C92.7633 2.27393 89.8154 1.95386 88.2678 2.51391C87.8993 2.67392 86.1306 3.99402 86.2043 3.99402C83.3301 4.15403 41.8394 4.11409 34.4698 4.35411C33.0696 4.39411 32.5537 5.1941 32.6274 5.47413C32.8485 8.5944 36.3859 7.91434 41.1024 8.07435C44.7872 8.19436 58.4947 7.63433 61.3688 7.79435C60.7055 7.95436 60.116 8.07439 59.9686 8.11439C58.4946 8.67444 59.379 9.51455 57.0207 9.55456C54.7362 9.59456 8.2341 10.2346 1.89626 10.2346C0.348644 10.2346 0.0538061 11.2746 1.01185 11.6747C1.01185 11.6747 1.01183 11.7147 1.08553 11.7147C2.26466 12.4748 3.51753 13.1948 4.99145 13.7949C5.28623 13.9149 6.68647 14.1149 7.12865 14.1149C24.005 14.1149 40.955 13.9149 57.8314 13.9149C57.8314 14.955 58.1262 15.9151 58.7158 16.9152C58.9369 17.3152 62.769 18.2753 63.727 18.9153C64.3903 19.3554 65.4958 19.9154 66.5275 20.1154C68.3699 20.4355 70.4334 20.3155 72.3495 20.3155C74.3393 20.3155 78.0977 20.3555 79.9401 19.5154C82.151 20.1154 84.8041 19.3154 87.3097 19.5554C87.3097 21.0756 87.2361 22.6357 87.4572 24.1558C87.5309 24.9159 88.1204 25.9159 87.4572 26.676C87.015 27.156 86.4991 27.556 86.2043 28.0761C85.7621 28.9162 86.8676 31.3164 84.0672 31.2764C82.0774 31.2364 80.3086 30.9164 78.3925 31.3164C78.0978 31.3564 77.9504 31.4765 77.803 31.5565C77.5082 31.5965 77.2134 31.7164 76.9186 31.8764C74.9288 33.4766 76.9186 34.5566 79.7928 35.0767C81.5615 35.3967 83.5513 35.5168 85.2463 35.9168C87.6783 36.5169 84.8041 36.0369 84.3619 36.9569C83.4038 38.8371 84.3619 40.9172 84.6567 42.7974C85.0252 45.3576 84.583 47.9979 84.5093 50.5181C84.3619 53.1183 84.2882 55.7186 84.2882 58.3588C84.2882 59.3189 84.0672 60.3589 84.4357 61.279C84.6567 61.839 85.6884 63.1591 84.7304 63.5992C84.0671 63.9192 84.1408 64.3192 84.583 64.5993C84.583 64.6793 84.6567 64.7193 84.7304 64.7993C86.9412 67.2795 85.0989 70.2398 88.71 72.44C91.5841 74.2001 97.9957 74.2802 101.754 73.4401C105.513 72.6 106.544 70.3598 106.987 68.3996C107.134 67.7195 107.06 67.0795 106.839 66.3994C106.618 65.5194 105.66 65.8794 106.544 65.2394C107.871 64.3193 107.723 53.8784 107.576 49.9581C107.502 46.4378 106.839 42.8374 106.397 39.3171C106.25 38.157 105.881 36.8769 104.628 35.9168C104.555 35.8368 104.481 35.7968 104.334 35.7168C105.513 35.1167 108.092 35.0368 109.05 34.9568C111.113 34.7567 112.956 34.2767 113.398 33.4366C116.199 34.1167 119.073 34.0766 122.536 33.7166C125.189 33.4366 127.4 34.3167 130.053 34.1567C130.717 34.1167 131.306 33.9566 131.822 33.7166C133.001 33.2366 134.475 33.7966 135.654 33.9166C137.57 34.1166 138.823 32.9965 140.739 33.3966C143.392 33.9166 145.751 33.6766 148.33 33.3166C149.73 34.4367 151.425 35.1567 153.783 35.1967C153.783 36.1168 153.783 36.8369 154.741 37.7969C156.068 39.1971 158.353 40.4772 160.195 41.6373C165.354 44.7976 170.144 48.0778 175.597 51.0781C175.671 51.1181 175.745 51.1581 175.892 51.1981C175.966 51.2381 175.966 51.2781 176.04 51.2781C181.567 54.8384 188.126 58.0387 194.537 61.0789C198.959 63.1991 204.486 67.1595 211.266 66.4794C215.172 66.0794 218.562 64.9193 222.321 64.2792C227.111 63.4392 231.827 62.5191 236.544 61.519C238.239 61.159 240.597 60.3189 242.366 60.719C243.324 60.919 244.061 60.839 245.019 60.719C247.893 60.3589 250.841 59.2388 252.831 58.1187C254.084 57.3987 254.01 56.5186 255.705 55.9185C256.589 55.6385 257.4 55.2385 257.768 54.7184C258.726 52.9583 258.063 50.9981 257.326 49.118ZM6.90752 12.5148C6.76013 12.5148 6.61274 12.5148 6.53904 12.5548C6.46535 12.5148 6.39163 12.4748 6.24424 12.4348C5.80207 12.2748 5.43361 12.0747 5.06513 11.8747C6.24426 11.8747 8.74994 11.8347 11.9926 11.7947C12.2873 11.9147 12.5084 12.0748 12.7295 12.2348C12.8769 12.3148 12.9506 12.4348 13.0243 12.5148C11.0345 12.5148 8.97101 12.5148 6.90752 12.5148ZM14.6456 12.4747C14.5719 12.2747 14.4245 12.1147 14.2034 11.9147C14.1297 11.8347 14.056 11.7947 13.9086 11.7147C14.8667 11.7147 15.8247 11.6747 16.8565 11.6747C17.0776 11.7947 17.225 11.8747 17.3724 11.9947C17.5935 12.1147 17.6672 12.2748 17.8146 12.4348C16.7828 12.4748 15.751 12.4747 14.6456 12.4747ZM19.2885 12.4348C19.1411 12.1548 18.9936 11.9147 18.6989 11.6347C19.5832 11.6347 20.4675 11.5947 21.3519 11.5947C21.573 11.7147 21.7941 11.7947 22.0152 11.8747C22.3837 12.0347 22.6047 12.1947 22.8258 12.3947C21.6467 12.4347 20.4676 12.4348 19.2885 12.4348ZM24.5209 12.3947C24.2998 12.1147 23.9313 11.8347 23.5628 11.5947C24.4471 11.5947 25.2578 11.5547 26.1421 11.5547C26.5843 11.7147 26.8791 11.9948 27.1739 12.1548C27.2476 12.2348 27.395 12.3147 27.4687 12.3947C26.437 12.3947 25.4789 12.3947 24.5209 12.3947ZM29.1637 12.3548C28.869 12.0748 28.5005 11.7547 28.132 11.5147C28.7952 11.5147 29.5321 11.4746 30.1954 11.4746C30.7113 11.7147 31.1535 12.0348 31.5956 12.3548C30.785 12.3548 29.9744 12.3548 29.1637 12.3548ZM33.217 12.3148C32.9222 11.9947 32.5537 11.7147 32.1116 11.4347C33.1433 11.4347 34.2487 11.3947 35.2804 11.3947C35.7963 11.6347 36.2385 11.9547 36.5333 12.3148C35.4279 12.3148 34.3224 12.3148 33.217 12.3148ZM58.8631 12.2747C51.9357 12.1947 45.082 12.2347 38.1546 12.2747C37.9335 11.9547 37.6387 11.6347 37.1965 11.3547C46.5559 11.1947 54.5888 11.0747 55.8416 11.1547C56.7997 11.1947 57.9051 11.1946 58.8631 11.0746C58.8631 11.4746 58.8631 11.9147 58.9368 12.3148L58.8631 12.2747ZM226.521 18.0752C231.827 21.2755 234.775 25.4759 238.165 29.3162C241.997 33.7166 245.756 38.157 249.514 42.5574C251.283 44.5976 252.978 46.6778 254.157 48.8379C254.305 49.078 254.378 49.318 254.526 49.558C252.389 49.9581 249.441 49.4379 247.598 49.0779C243.913 48.3578 241.85 46.4378 240.523 44.5576C237.944 40.9173 234.775 37.3969 232.343 33.7166C232.785 33.5566 233.154 33.3966 233.522 33.2366C237.207 31.4364 235.807 28.8362 231.975 27.5161C230.132 26.876 228.216 26.756 226.448 26.996C226.448 26.956 220.699 21.1555 217.383 18.4753C215.909 17.2351 214.435 15.9951 212.814 14.835C210.971 13.5549 206.771 12.1947 206.918 10.3946V10.3546C208.392 9.51455 212.814 9.8345 214.509 9.87451C216.425 9.91451 218.267 10.0346 220.11 10.1146C219.078 13.2348 222.91 15.875 226.521 18.0752ZM232.196 32.8366C229.985 33.7566 226.669 34.1567 223.942 34.1166C220.405 34.0366 217.973 31.7964 219.668 30.1963C220.699 29.3562 225.268 27.516 229.395 27.8761C233.891 28.2361 236.102 31.2364 232.196 32.8366ZM99.0274 12.4747C98.9537 12.4747 98.88 12.4348 98.7326 12.4348C95.4163 12.5548 92.1737 12.5548 88.8574 12.5548C89.0048 11.3547 89.0785 10.1546 88.8574 8.91446C88.8574 8.71445 88.7836 8.55441 88.7836 8.3944C88.7836 8.3944 88.8574 8.39446 88.8574 8.35445C91.5105 7.27436 95.4163 7.03426 97.9956 8.27437C98.143 8.35438 98.2905 8.3944 98.5115 8.3944C98.6589 9.79452 98.88 11.1546 99.0274 12.4747ZM90.4787 3.87399C92.3948 3.79398 96.1533 3.71405 98.0694 4.15409C98.0694 4.39411 98.0694 4.59411 98.1431 4.83413C98.0694 4.95414 98.0694 5.03417 98.1431 5.15418C98.2168 5.95425 98.2904 6.71427 98.3641 7.51434C95.5637 6.43425 91.6578 6.51426 88.7836 7.51434C88.7836 6.67427 88.9311 5.87416 88.6363 5.07409C89.2258 4.59405 88.7837 3.95399 90.4787 3.87399ZM88.5626 30.0763C88.6363 29.2762 88.5626 28.5961 89.2259 27.8761C89.7418 27.356 90.3313 26.876 90.3313 26.2759C90.4787 22.1956 88.71 18.1553 88.71 18.1553C88.71 18.1553 88.1941 15.075 88.7836 13.3549C92.1 13.3549 99.0274 13.1949 99.1011 13.1549C99.1748 14.395 99.3958 15.635 99.1011 16.8751C97.3324 25.0358 100.428 27.3561 100.943 27.7561C101.975 28.9162 100.796 30.3963 101.975 31.5964C97.2587 31.7564 92.5422 31.7964 87.8256 31.7964C88.3415 31.3564 88.4889 30.7163 88.5626 30.0763ZM99.617 5.35419C111.187 5.19418 157.616 5.1541 169.407 5.27411C169.407 5.27411 169.554 5.67416 169.554 5.79417C169.628 6.35422 113.914 6.07418 99.6907 6.07418C99.6907 5.87416 99.617 5.59421 99.617 5.35419ZM77.803 18.3153C77.803 18.7553 71.1703 18.7153 70.286 18.7153C68.2962 18.7153 67.1171 18.5953 65.5694 17.7952C64.1692 17.0752 63.2112 16.7151 61.5899 16.1951C61.5162 16.1551 61.1477 16.075 61.074 16.075C60.8529 15.555 60.4108 11.0747 60.4845 10.7146C60.5582 10.6746 60.7055 10.6346 60.7792 10.5946C61.2951 10.3146 61.5162 9.99458 61.6636 9.63455C61.811 9.19451 63.6534 9.15445 64.243 9.07444C65.5695 8.87442 66.3802 8.31445 66.3802 7.55438C68.0752 7.47438 78.2452 7.07432 78.1715 8.63446C78.0978 10.3146 77.803 18.1553 77.803 18.3153ZM38.0072 6.71427C36.5333 6.63427 35.7226 6.63431 35.5016 5.95425C41.6183 5.95425 86.2043 5.6342 87.3097 5.43418C87.3834 5.91422 87.3835 6.39421 87.3835 6.87425C86.5728 6.63423 80.2349 6.39426 78.6873 6.8343C77.4345 6.47427 39.7022 6.79428 38.0072 6.71427ZM86.8676 17.9952C84.583 18.0352 80.6771 18.3952 79.498 17.4752C79.5717 15.755 79.719 7.83433 79.5716 7.4743C80.8982 7.19428 87.3098 6.87429 87.4572 8.91446C87.5309 9.99456 87.7519 11.1547 87.4572 12.2348C86.9413 14.1149 86.8676 17.9952 86.8676 17.9952ZM99.838 72.1199C98.0693 72.52 95.7111 72.4 93.8687 72.24C90.5524 71.9199 89.1521 70.5998 88.7836 68.9197C88.4889 67.7596 88.4889 66.8394 88.1204 65.8794C93.2055 65.9594 98.4378 66.7595 103.375 65.9994C103.965 68.0796 104.186 71.1199 99.838 72.1199ZM106.25 33.5966C104.334 33.8366 102.786 34.2766 101.533 35.0767C100.943 35.4367 100.575 35.9568 101.091 36.3968C102.565 37.7969 103.081 38.797 103.228 40.4772C103.523 43.8775 104.186 47.2778 104.334 50.678C104.407 54.4384 104.555 63.9993 103.891 64.2393C103.302 64.4393 103.154 64.7593 103.154 65.1193C98.143 65.9194 92.8369 65.0393 87.6782 64.9993C87.5308 64.7593 87.3834 64.5593 87.236 64.3193C88.0467 63.5592 87.6782 62.6391 87.3097 61.719C86.3517 59.3988 86.9413 56.7986 87.015 54.4384C87.0887 51.8382 87.236 49.238 87.3097 46.6378C87.3834 43.9175 86.8676 41.3173 86.6465 38.597C86.6465 38.237 86.8676 37.557 86.8676 37.557C86.8676 37.557 88.6363 37.237 88.8574 36.7569C89.2259 36.0369 88.5626 35.3167 87.5308 34.8767C86.278 34.3166 84.5093 34.0766 83.0354 33.8766C81.7826 33.7166 78.4662 33.5566 79.0558 32.7965C81.4141 32.3565 110.377 31.7564 110.229 32.9165C110.156 33.5966 106.839 33.5166 106.25 33.5966ZM104.186 29.7563C105.144 30.2364 106.102 30.6764 107.134 31.1164C106.323 31.1564 105.292 31.2764 104.776 31.0763C104.26 30.8363 104.112 30.3164 104.186 29.7563ZM111.924 31.1964C109.05 29.9163 102.196 27.076 100.87 25.3159C99.2485 22.2756 100.501 18.8754 100.722 15.7551C100.796 15.075 100.796 14.3549 100.722 13.6748C104.555 20.1154 109.934 26.2359 115.609 32.2765C114.282 32.0764 113.103 31.7164 111.924 31.1964ZM252.831 54.9585C252.167 55.2785 251.578 55.5985 251.209 56.0785C250.325 57.2386 248.777 57.8387 246.935 58.4388C245.314 58.9588 244.061 59.3188 242.219 59.0788C240.892 58.9188 239.86 58.9988 238.607 59.2388C234.923 59.9189 231.312 60.879 227.627 61.5591C223.868 62.2791 220.036 62.8792 216.425 63.7593C212.003 64.8394 208.908 65.1994 204.413 63.8392C201.391 62.9192 195.127 58.6388 192.621 56.7986C190.042 54.8784 186.578 53.3184 184.072 51.3582C178.84 47.2378 173.313 43.3175 167.491 39.4371C161.374 35.3968 156.437 30.9964 150.762 26.796C147.814 24.5958 144.866 22.4756 142.434 20.0754C141.255 18.9153 138.013 17.2752 138.234 15.875C138.307 15.355 136.833 15.355 136.76 15.875C136.539 17.0751 138.528 18.2753 139.634 19.1953C141.992 21.0755 143.613 23.1957 146.266 24.9559C152.604 29.2363 157.689 33.9966 163.953 38.317C170.365 42.7174 177.292 46.9178 182.82 51.7182C185.178 53.7584 188.715 55.2785 191.368 57.1587C191.884 57.5187 192.4 57.8787 192.842 58.2787C187.536 55.7185 182.304 53.0383 177.735 50.118C177.661 50.078 177.514 49.9981 177.44 49.9581C177.44 49.9181 177.366 49.918 177.292 49.878C173.018 47.5578 169.112 45.0376 165.206 42.5574C163.29 41.3573 161.374 40.1572 159.458 38.9571C158.5 38.3571 157.689 37.637 156.879 36.9569C155.847 36.0769 156.363 35.2367 156.363 34.2766C156.363 33.7166 155.405 33.3966 154.52 33.5166C152.236 33.7566 151.278 33.0766 150.172 32.1565C149.804 31.8365 149.214 31.7564 148.698 31.7964C148.404 31.6764 147.961 31.5964 147.519 31.6764C145.603 31.9564 144.203 32.1965 142.139 31.9964C141.329 31.9164 140.813 31.5965 140.002 31.5565C138.381 31.4765 136.244 32.4365 134.917 32.1165C133.591 31.7964 132.706 31.7165 131.306 31.8365C130.864 31.8765 130.422 32.0765 130.053 32.2365C128.653 32.8366 126.811 32.2765 125.337 32.0365C123.716 31.7565 122.094 32.0364 120.473 32.1965C119.441 32.3165 118.409 32.3565 117.451 32.3165C110.819 25.2359 104.481 17.9953 100.501 10.3146C100.501 10.2746 100.428 10.2346 100.428 10.1946C100.28 9.07446 100.059 7.91436 99.9118 6.79426C115.977 6.79426 170.66 6.35428 170.66 6.35428C170.66 6.35428 170.144 4.7141 169.923 4.7141C158.058 4.59409 111.261 4.27408 99.6907 4.43409C99.6907 4.35409 99.6907 4.2341 99.6907 4.15409C100.059 4.07408 100.354 3.91403 100.575 3.71401C102.86 3.03395 104.997 2.99395 107.576 3.514C109.345 3.87403 111.114 3.19397 112.44 2.71393C114.209 2.07387 116.641 3.11396 118.483 3.11396C121.136 3.15396 122.979 2.35389 125.705 2.51391C125.926 2.63392 126.221 2.67388 126.59 2.67388C130.053 2.63388 133.149 1.87389 136.686 1.9539C141.181 2.07391 145.677 1.79383 150.099 2.19386C158.058 2.95393 165.943 4.07408 174.124 4.15409H174.197C174.271 4.15409 174.271 4.15409 174.345 4.15409H174.418C174.418 4.15409 174.418 4.15409 174.492 4.15409C176.777 4.15409 179.061 4.11401 181.346 4.074C183.114 4.034 187.61 3.67403 188.789 4.63411C190.042 5.55419 190.484 6.31426 192.769 6.43427C193.653 6.47427 194.169 6.03423 194.243 5.6342C194.39 4.63411 198.148 5.03417 198.959 5.35419C199.843 5.75423 200.654 6.19427 201.612 6.5543C202.496 6.87433 203.454 6.51422 203.749 6.07418C205.002 4.35403 209.792 7.9944 212.445 6.8343C214.361 5.99423 221.068 7.6744 220.847 9.15452C217.899 9.07452 214.951 8.87442 211.93 8.87442H211.856C211.782 8.83442 211.708 8.83448 211.561 8.83448C201.023 7.87439 190.484 9.23445 179.872 8.87442C172.207 8.6344 162.995 7.63439 156.215 10.1546C155.405 10.4346 156.142 11.1547 156.952 10.8346C163.732 8.31443 173.165 9.43447 180.83 9.67449C189.526 9.95451 198.075 9.03447 206.771 9.3145C206.255 9.47451 205.813 9.71455 205.518 10.0346C205.371 10.1946 205.444 10.3946 205.665 10.5146C205.739 11.3147 206.476 11.9547 207.434 12.5948C209.497 13.9949 211.93 15.115 213.846 16.5951C217.899 19.8354 225.342 26.9961 225.416 27.0361C223.5 27.4361 220.847 28.4362 219.52 28.9562C215.835 30.3564 217.899 33.1566 221.436 34.3167C224.016 35.1567 228.29 34.7567 231.312 33.9567C232.933 36.4369 234.923 38.8371 236.765 41.2373C238.534 43.4775 239.787 45.9176 242.587 47.8778C244.798 49.4379 250.915 50.9581 255.042 50.2381C255.263 50.9181 255.41 51.5981 255.484 52.2782C255.336 53.7183 254.452 54.1584 252.831 54.9585Z" fill="#649BE3"/>
</svg>
