<svg width="196" height="195" viewBox="0 0 196 195" fill="none" xmlns="http://www.w3.org/2000/svg">
<path d="M193.501 179.179C192.469 176.619 190.111 174.259 189.153 171.659C188.121 169.058 124.595 10.9646 123.416 8.96442C123.269 8.76441 123.195 8.60439 123.121 8.52438C123.269 8.52438 123.416 8.44438 123.637 8.24436C124.153 7.80432 124.006 7.32428 123.785 6.84424C123.048 4.96407 123.711 3.04391 122.385 1.24375C122.163 0.923723 121.721 0.763709 121.205 0.723706C121.058 0.683702 120.911 0.643699 120.69 0.603696C115.31 0.123654 109.561 0.483685 104.034 0.403678C97.3279 0.323671 90.6953 0.163656 83.989 0.0836493C77.3563 0.0036424 70.7974 0.0436468 64.1648 0.123654C58.5639 0.203661 52.8156 0.0436471 47.2884 0.603696C46.4777 0.563692 45.6671 0.803712 45.6671 1.36376C45.7408 2.84389 45.1512 4.44403 44.5617 5.84415C44.2669 6.56421 44.3406 7.20427 45.6671 7.64431C46.9199 8.04434 47.2884 7.88433 47.4358 8.88441C47.5095 9.68448 47.141 10.4846 46.7726 11.2846C46.1093 12.8848 45.2249 14.4449 44.6354 16.085C43.0877 20.3254 41.6875 24.6058 40.5821 28.9262C39.4766 33.0865 2.55503 143.456 2.55503 144.976C2.55503 145.936 0.933716 146.656 0.712628 147.616C0.491541 149.017 -0.245454 151.577 3.07086 152.137C5.13435 152.497 9.04025 152.697 10.3668 151.457C12.3566 149.537 11.9144 147.176 11.8407 145.056C11.6196 140.416 31.2964 132.695 32.4755 131.775C40.2136 131.655 47.6569 130.455 55.3213 130.175C58.2691 130.055 61.2169 129.735 64.1648 130.055C65.8598 130.255 67.6285 131.655 68.7339 132.335C69.913 133.055 71.1659 133.775 72.4924 134.455C72.6398 137.376 73.4505 140.296 73.8926 143.176C74.4085 146.776 75.0718 150.377 75.735 153.977C76.9142 160.738 79.1987 167.618 79.3461 174.379C79.2724 175.819 79.7146 177.179 80.1568 178.579C80.4516 179.579 80.599 180.499 80.3042 181.459C80.2305 181.659 80.2305 181.779 80.3042 181.859C79.0513 182.059 78.7566 182.74 78.8303 183.3C78.904 183.7 80.0831 186.62 80.0831 187.66C80.1568 190.26 81.9992 191.58 85.1681 193.46C87.7474 195.021 91.3586 194.421 94.6749 193.86C98.286 193.3 96.591 190.42 96.1488 189.06C95.7803 187.9 95.7803 186.62 94.896 185.54C93.0536 183.1 114.131 167.378 116.341 164.458C127.396 163.418 138.303 161.898 149.652 161.778C152.6 163.618 168.739 170.738 173.898 173.219C173.972 177.139 174.266 181.459 180.752 183.86C184.289 185.18 192.911 186.78 195.196 183.86C196.08 182.619 194.017 180.459 193.501 179.179ZM128.501 28.6061C128.28 28.5661 128.133 28.4861 127.912 28.4461C127.838 28.4461 127.838 28.4461 127.764 28.4461C127.47 28.3661 127.101 28.3661 126.88 28.4861C126.364 28.7261 125.848 29.0862 126.217 29.4862C126.511 29.7662 127.175 29.8062 127.691 29.7662C128.133 29.7262 128.575 29.6862 128.87 29.5262C141.84 61.209 165.202 118.214 165.202 118.214C165.202 118.294 185.837 170.898 186.574 172.779C187.089 174.179 188.121 175.539 189.006 176.859C188.048 177.139 186.942 177.419 186.058 177.179C185.321 176.979 184.805 176.459 184.289 176.019C184.289 175.979 184.289 175.899 184.289 175.859C183.552 174.379 183.331 172.339 181.415 171.139C180.531 169.338 180.162 167.538 179.72 165.698C179.13 163.378 178.099 161.138 177.141 158.857C177.214 158.857 177.214 158.817 177.288 158.817C178.32 158.257 177.435 156.737 176.919 155.897C177.214 156.057 177.583 156.177 178.025 156.217C179.867 156.417 179.867 155.057 178.836 154.577C178.836 154.577 178.762 154.577 178.762 154.537C178.614 154.337 178.172 154.177 177.73 154.297C177.067 154.497 176.772 154.897 176.625 155.257C176.109 154.177 175.519 153.217 174.414 152.297C174.561 152.177 174.635 152.057 174.488 151.897C171.024 148.137 169.624 143.576 168.223 139.456C167.486 137.256 166.676 135.015 165.939 132.815C165.128 130.455 163.507 128.215 163.212 125.815C163.212 125.775 163.286 125.735 163.286 125.695C163.433 125.615 163.507 125.495 163.433 125.335C163.138 124.574 162.991 123.854 162.77 123.134C162.844 123.214 162.844 123.294 162.917 123.334C163.433 123.854 164.686 124.134 165.644 123.814C166.455 123.534 166.676 122.934 166.307 122.494C165.939 122.054 165.202 121.774 164.317 121.854C164.096 121.734 163.802 121.694 163.507 121.814C162.917 122.054 162.622 122.374 162.622 122.734C162.18 121.454 161.517 120.254 159.822 119.214C159.748 119.134 159.601 119.094 159.527 119.054C159.527 119.014 159.527 118.974 159.527 118.934C157.759 114.534 156.211 110.013 155.105 105.573C154.147 101.572 150.831 97.8521 150.168 93.8118V93.7718C151.421 93.2517 150.463 91.8916 150.094 91.2916C149.578 90.4115 149.505 89.2914 148.252 88.6113C148.252 88.5313 148.252 88.4913 148.252 88.4113C146.483 85.291 145.893 82.0108 144.567 78.8105C143.904 77.2103 142.725 75.7302 141.988 74.1301C141.251 72.4899 141.103 70.8498 140.293 69.2096V69.1696C140.366 68.4496 140.366 67.7695 140.145 67.0895C140.145 67.0495 140.145 66.9695 140.145 66.8895C139.408 65.6093 138.598 64.3292 138.45 62.9691C138.598 62.8491 138.598 62.7291 138.524 62.6091C138.524 62.5691 138.598 62.5291 138.598 62.4491C138.671 61.449 137.787 60.5689 137.566 59.5688C137.418 58.8088 137.492 58.1287 136.903 57.4086C136.755 57.2486 136.608 57.2086 136.387 57.2086C136.239 57.1286 136.092 57.0486 135.797 57.0486C135.355 55.4885 134.323 54.0483 133.807 52.4882V52.4482C133.881 52.3682 133.881 52.3282 133.807 52.2482C132.555 48.8879 131.228 45.5276 129.975 42.1273C129.312 40.4072 128.87 38.687 128.354 36.9268C127.912 35.2467 126.659 33.7266 126.29 32.0064C126.29 32.0064 126.29 32.0064 126.29 31.9664C126.511 31.9264 126.733 31.8464 126.806 31.7664C127.248 31.3664 126.511 30.5263 126.29 30.1263C125.848 29.0862 125.553 27.9261 124.816 26.926C124.743 26.846 124.669 26.766 124.522 26.726C124.448 26.606 124.227 26.4859 123.858 26.4859C123.785 26.4859 123.785 26.4859 123.711 26.4859C123.711 26.4459 123.711 26.4059 123.711 26.3259C122.679 23.0456 121.279 19.7654 119.879 16.5251C118.847 14.0449 118.479 11.2446 116.784 8.84441C117.963 8.84441 119.216 8.80441 120.395 8.76441C120.542 9.24445 123.785 17.1651 128.501 28.6061ZM175.446 166.818C174.93 165.258 172.277 160.418 171.761 159.497C173.087 159.457 174.561 159.457 175.814 159.257C176.625 161.258 177.435 163.258 178.172 165.298C178.762 166.938 178.983 168.538 179.572 170.138C178.541 169.658 177.435 169.178 176.404 168.658C175.814 168.338 175.151 168.098 174.488 167.818C175.151 167.698 175.519 167.258 175.446 166.818ZM171.908 165.898C170.213 165.378 168.666 164.338 167.56 163.738C165.57 162.658 163.433 161.698 161.37 160.658C162.328 160.578 168.739 159.938 169.771 161.578C170.876 163.458 170.803 164.178 171.908 165.898ZM113.836 13.3248C113.615 13.0048 113.173 12.8448 112.73 12.8048C112.657 12.7247 112.509 12.6447 112.362 12.6047C111.699 11.3646 111.183 10.1245 110.151 9.00443C111.846 9.00443 113.615 9.04443 115.31 9.04443C117.3 11.6847 117.668 14.8849 118.847 17.6452C120.1 20.6454 121.353 23.6457 122.311 26.686C121.058 26.686 119.805 26.686 118.552 26.686C118.7 26.3659 115.383 15.925 113.836 13.3248ZM115.678 25.6459C115.678 26.0859 112.141 25.9259 110.151 25.7659C110.298 25.0858 111.035 21.6855 111.478 20.3654C111.699 19.6453 111.92 18.9253 112.141 18.2052C112.141 18.3652 112.214 18.5252 112.214 18.6853C112.509 20.1254 115.604 24.4858 115.678 25.6459ZM110.814 12.5647C110.372 12.6847 107.645 25.2458 107.351 26.4059C105.287 26.3659 103.224 26.3659 101.16 26.3259C101.455 26.2059 101.602 26.0059 101.676 25.8459C101.971 25.7259 102.118 25.5259 102.118 25.2858C102.192 22.2456 104.697 9.48447 104.771 9.00443C106.024 9.00443 107.203 9.00443 108.456 9.00443C109.635 10.0845 110.151 11.3646 110.814 12.5647ZM99.1703 24.8458C94.3064 24.7658 71.2395 25.7659 70.8711 23.9657C69.8393 18.8453 67.9233 13.7648 67.6285 8.60439C73.9663 8.7644 96.5173 9.8845 101.308 9.36446C100.423 11.4046 99.3177 21.7655 99.1703 24.8458ZM75.4402 26.646C75.5139 26.646 121.574 27.486 123.49 27.446C124.374 28.6861 124.669 30.0863 125.259 31.3664C125.406 31.6464 125.627 31.4464 124.522 31.4464C123.49 31.4464 91.8744 31.4864 89.2214 31.5264C86.1998 31.5664 73.9663 31.4864 70.7974 31.4864C70.7237 30.4863 69.9867 26.966 69.7656 26.1659C71.0185 26.4059 73.0083 26.5659 75.4402 26.646ZM132.333 52.8082C132.849 54.2884 133.881 55.6885 134.323 57.1686C132.702 57.2086 131.081 57.3286 129.533 57.2086C129.533 57.0086 129.312 56.8086 129.017 56.6486C129.091 56.4885 120.1 34.7267 119.879 32.3665C119.879 32.3265 119.879 32.3265 119.879 32.2864C120.616 32.2864 123.121 32.3665 124.964 32.2464C125.259 33.5266 125.922 34.7267 126.511 35.9668C127.322 37.5669 127.543 39.2871 128.059 40.9272C129.312 44.8075 130.933 48.6479 132.407 52.5282V52.5682C132.333 52.6482 132.333 52.7282 132.333 52.8082ZM102.929 57.4486C101.16 57.5686 99.3914 57.6487 97.6227 57.6887C97.6964 57.5286 97.6964 57.3686 97.6964 57.2486C97.6227 55.3284 100.644 33.5266 100.792 32.9665C101.013 32.0064 107.572 32.4065 107.645 32.5665C105.95 35.9668 103.739 51.0081 102.634 54.9684C102.413 55.6885 102.339 56.7286 102.929 57.4486ZM110.519 32.9265C112.657 32.8065 114.794 33.0065 117.005 33.0465C117.373 34.8067 125.701 56.1285 125.701 56.1285L105.434 56.2085C105.361 56.2485 108.898 36.2068 110.519 32.9265ZM97.6964 33.6866C97.6964 33.7266 97.6964 33.7266 97.6964 33.7666C97.6227 37.7269 94.8222 56.5686 94.8222 56.5686L74.6296 57.0886C74.6296 57.0886 71.9028 36.0068 71.9028 33.0465C73.5241 33.0065 92.9798 33.3265 97.6964 33.6866ZM135.65 57.9287C136.239 58.6087 135.871 59.3288 136.166 60.0489C136.46 60.7689 136.976 61.489 137.05 62.249C136.976 62.2891 136.976 62.3291 136.903 62.4091C133.07 62.4091 75.2191 63.5292 75.2191 63.5292C74.8507 61.969 74.7033 60.4089 74.777 58.8488C75.1455 58.8888 133.439 57.9687 135.65 57.9287ZM132.702 66.3294C134.765 67.2895 137.271 68.0095 138.745 69.2497C139.482 70.6898 139.85 72.1699 140.293 73.65C140.735 75.2502 141.84 76.8103 142.725 78.3304C144.567 81.4907 144.862 84.851 146.483 88.0513C146.041 88.0113 145.599 87.9713 145.23 87.9713C144.125 87.9313 142.946 87.9713 141.84 88.0113C141.84 87.9713 141.84 87.9713 141.84 87.9313C141.988 87.8113 132.997 68.3296 132.702 66.3294ZM107.793 73.21C112.288 74.2101 116.415 75.4502 120.837 76.5303C125.406 77.6504 130.491 77.4904 135.208 78.1704C135.281 78.1704 135.355 78.1704 135.355 78.1704C135.502 78.2104 135.65 78.2504 135.871 78.2504C135.945 78.5705 135.945 78.9305 136.092 79.2505C134.176 79.0105 132.186 78.9305 130.196 78.8105C130.049 78.7705 129.828 78.7305 129.533 78.7305C128.501 78.6905 127.47 78.5705 126.438 78.4905C125.332 78.4105 124.227 78.4104 123.195 78.2104C123.048 78.1704 122.9 78.1704 122.753 78.1704C118.847 77.5704 115.678 76.4903 111.92 75.6502C108.456 74.8501 105.656 73.33 102.118 72.69C102.192 72.4099 102.266 72.1299 102.339 71.8499C103.813 72.4899 106.393 72.89 107.793 73.21ZM104.403 67.5695C104.55 66.4894 104.624 65.4093 104.697 64.3292C108.824 64.2492 112.878 63.9692 117.005 63.8492C119.216 63.8092 121.426 63.7692 123.637 63.7292C127.027 63.6492 128.133 64.2892 129.828 65.5693C129.828 65.6093 133.292 75.1702 134.102 76.3303C131.007 75.9702 128.649 75.9702 125.553 75.6502C121.721 75.2502 118.258 73.9701 114.794 73.01C111.625 72.1299 108.087 71.6099 104.919 70.7298C103.445 70.3298 104.329 68.2496 104.403 67.5695ZM103.002 74.5701C104.108 74.9301 105.14 75.4102 106.245 75.7702C107.866 76.3703 109.783 76.8103 111.625 77.2103C113.467 77.6504 115.162 78.2904 117.005 78.7705C118.773 79.2505 120.763 79.4505 122.679 79.7306C122.753 79.7306 124.816 79.8906 125.774 79.9706C126.954 80.0506 133.881 80.5306 135.945 80.8107C136.092 82.0508 138.303 86.4511 138.819 87.4112C137.566 87.4912 136.239 87.4112 135.06 87.4912C132.628 87.6513 130.123 87.6112 127.691 87.6112C127.543 87.6112 127.322 87.6112 127.175 87.6513C118.258 87.6112 109.488 87.6112 100.571 88.0513C100.792 85.7711 101.75 83.5309 101.971 81.2507C102.118 79.0905 102.781 76.8103 103.002 74.5701ZM132.923 65.3293C132.849 65.2493 132.776 65.1293 132.702 65.0493C131.596 64.2092 130.786 63.6092 129.754 63.1291C131.081 63.1691 132.481 63.1691 133.807 63.1691V63.2091C134.692 64.0092 135.797 64.6493 136.903 65.3293C138.229 66.1694 138.745 67.0095 138.819 68.0095C137.05 67.0495 134.765 66.3294 132.923 65.3293ZM135.502 63.2091C136.018 63.2091 136.46 63.2091 136.976 63.2091C137.05 63.6092 137.124 63.9692 137.271 64.3692C136.682 63.9692 136.092 63.6092 135.502 63.2091ZM78.3144 74.6501C77.6511 72.5299 77.8722 70.9698 80.3042 69.1696C82.2203 67.7295 84.4311 66.4494 85.8314 64.8493C87.4527 64.8093 89.1477 64.6893 90.769 64.6493C93.3483 64.5692 92.3903 66.4894 92.3166 67.4895C92.0218 70.5298 90.9164 73.53 90.9164 76.6103L81.1148 76.8503C79.7883 76.8903 78.2407 77.2104 78.3144 76.1703C78.3144 75.6902 78.4618 75.1702 78.3144 74.6501ZM76.472 66.1694C77.0616 65.6093 77.7248 65.0893 78.0933 64.4892C78.167 64.4092 78.167 64.3292 78.167 64.2492C79.862 64.2092 81.557 64.1292 83.252 64.0892C81.4833 66.0494 78.5355 67.6095 76.472 69.4497C76.2509 69.6497 76.0298 69.8497 75.8824 70.0897C75.5139 68.9296 75.2929 67.7695 75.1455 66.6094C75.5876 66.5694 76.1772 66.4494 76.472 66.1694ZM77.8722 78.5305C79.5672 78.8105 82.1466 78.4105 83.8416 78.3704L92.1692 78.1304C93.1272 78.0904 93.5694 77.6904 93.5694 77.2904C93.7168 77.1703 93.7905 77.0103 93.7905 76.8503C93.7168 74.8101 94.0853 72.77 94.5275 70.7298C94.896 68.8496 94.9696 66.8895 95.4855 65.0093C95.5592 64.6092 95.4855 64.2892 95.2644 64.0092C97.4016 64.0092 99.5388 63.8892 101.75 63.8092C101.75 63.8092 101.75 63.8092 101.75 63.8492C101.676 65.7694 100.865 67.8895 101.16 69.8497C101.16 70.8498 100.939 71.8499 100.644 72.81C100.349 72.93 100.128 73.13 100.128 73.41C100.128 74.7301 99.4651 76.0102 99.3914 77.2904C99.244 78.6105 99.1703 79.9706 99.0229 81.2907C98.8018 83.8509 97.6227 86.4111 97.549 88.9714C95.9277 89.0514 94.3064 89.1714 92.6851 89.2914C92.8325 89.0514 92.8325 88.7714 92.7588 88.5313C92.3166 86.7312 92.7588 84.851 90.6216 83.3709C89.2214 82.3708 87.2316 81.3707 85.4629 80.5706C83.6205 79.7306 80.3042 80.3306 78.167 80.3706C78.0196 80.3706 77.8722 80.3706 77.7248 80.4106C77.5774 79.7706 77.5037 79.0905 77.3563 78.4505C77.5037 78.4905 77.6511 78.5305 77.8722 78.5305ZM83.8416 81.9308C84.947 82.4508 85.9051 83.0909 86.9368 83.6109C88.8529 84.571 89.2213 85.4911 89.295 86.8912C89.295 87.3712 89.5898 87.8913 89.6635 88.3713C89.8846 89.0914 88.8529 88.9714 87.8211 89.0914C86.1261 89.2914 84.3574 89.4514 82.5887 89.5714C80.3042 89.7314 80.4516 88.9714 80.3042 88.0113C80.0831 85.9711 79.125 84.0109 78.9039 81.9308C80.5989 81.8107 83.0309 81.5307 83.8416 81.9308ZM146.115 88.8514C147.81 88.9714 148.031 90.1315 148.325 90.8515C148.473 91.2516 149.947 93.0517 148.768 93.2517C147.294 93.4918 81.4833 95.7319 80.3042 95.812C80.3042 94.8919 80.3042 93.9718 80.2305 93.0517C80.1568 92.3317 79.9357 91.6116 79.7146 90.9315C82.7361 91.6916 144.346 88.7313 146.115 88.8514ZM93.5694 110.093C93.5694 110.133 93.5694 110.133 93.5694 110.173C93.201 114.134 91.8007 118.054 91.8744 122.014C91.8744 122.054 91.8744 122.094 91.8744 122.174C91.2848 122.214 90.6953 122.214 90.1794 122.254C88.9266 122.334 87.7475 122.454 86.5683 122.494C87.379 119.894 90.032 96.572 89.9583 96.412C92.0955 96.292 94.2327 96.132 96.2961 96.052C95.2644 97.6521 95.2644 99.6923 94.9696 101.292C94.3064 104.173 93.7168 107.053 93.6431 109.973C93.5694 110.013 93.5694 110.053 93.5694 110.093ZM99.0229 96.532C102.266 96.492 140.956 94.7719 141.84 94.7719C142.946 98.4122 151.568 116.214 151.937 118.534C151.863 118.534 102.266 121.014 94.8222 121.174C94.9696 117.494 98.6544 97.2121 99.0229 96.532ZM150.168 106.333C149.284 104.493 148.62 102.613 147.81 100.772C146.852 98.5322 145.157 96.332 144.641 94.0918C145.967 94.1318 147.441 94.2518 148.694 94.0918C149.431 98.2922 152.674 102.173 153.705 106.333C154.737 110.453 156.211 114.654 157.832 118.694C157.685 118.694 157.537 118.694 157.39 118.694C156.579 118.694 155.769 118.734 154.958 118.814C154.737 116.934 153.779 115.134 153.116 113.253C152.379 110.973 151.273 108.613 150.168 106.333ZM87.0842 97.2521C86.9368 99.8923 84.7996 117.934 84.7259 118.334C84.5785 117.734 81.4833 100.572 81.4833 97.3721C82.4413 97.3721 86.1998 97.2921 87.0842 97.2521ZM85.1681 123.334C86.7894 123.294 88.337 123.214 89.8846 123.054C91.1375 122.894 92.3903 122.934 93.6431 122.814C101.307 122.734 108.824 121.734 116.489 121.614C116.636 121.654 154.737 119.734 155.105 119.694C157.095 119.534 158.201 119.334 159.454 120.294C159.675 120.454 159.896 120.654 160.043 120.854C158.864 120.934 157.685 121.054 156.579 121.294C153.779 121.534 150.979 121.414 148.104 121.414C144.935 121.374 141.767 121.654 138.598 121.774C132.333 122.054 126.069 122.454 119.805 122.774C113.467 123.094 107.129 123.334 100.865 123.654C95.4118 123.894 89.9583 124.654 84.5048 124.534C84.5048 124.534 84.5048 124.534 84.4311 124.534C84.3574 124.174 84.2837 123.854 84.2101 123.494C84.5048 123.454 84.8733 123.414 85.1681 123.334ZM100.865 124.414C107.645 124.094 114.499 123.814 121.279 123.454C127.543 123.134 133.807 122.734 139.998 122.494C143.093 122.374 146.188 122.174 149.357 122.214C151.789 122.254 154.221 122.294 156.653 122.094C156.727 122.094 156.874 122.094 156.948 122.054C158.127 121.814 159.38 121.694 160.633 121.614C161.37 122.774 161.517 124.094 161.885 125.295C160.927 125.335 159.969 125.295 159.011 125.335C158.127 125.375 88.1159 129.335 85.7576 129.415C85.3892 128.055 85.0207 126.655 84.6522 125.295C90.032 125.375 95.4855 124.654 100.865 124.414ZM163.359 139.016C161.664 134.735 159.896 130.415 157.611 126.255C157.98 126.215 158.348 126.175 158.717 126.135C159.675 126.015 160.706 126.095 161.738 126.095C162.033 128.015 162.917 129.855 163.802 131.695C165.054 134.095 165.423 136.615 166.455 139.056C168.223 142.976 169.108 147.216 171.982 150.977C170.655 150.617 169.255 150.817 167.855 151.097C167.855 150.977 167.855 150.817 167.707 150.657C166.307 148.937 166.16 147.016 165.644 145.176C165.128 143.056 164.17 141.016 163.359 139.016ZM164.612 150.657C158.495 150.897 97.1805 154.977 91.727 155.697C91.8744 147.376 93.3483 139.056 93.4957 130.695C96.4436 130.615 152.968 127.335 155.032 127.095C157.169 131.135 158.717 135.255 160.485 139.376C161.37 141.376 162.107 143.456 162.77 145.496C163.433 147.296 163.58 148.977 164.612 150.657ZM90.5479 130.095C90.5479 130.135 89.3687 144.536 88.9266 151.737C88.7792 150.537 88.7792 149.377 88.6318 148.297C88.2633 145.416 88.1896 142.536 87.9685 139.656C87.6737 136.455 86.9368 133.655 85.9787 130.495C87.6 130.455 89.074 130.175 90.5479 130.095ZM172.277 152.097C172.792 152.377 173.235 152.697 173.603 153.057C168.223 153.017 162.696 153.617 157.39 153.937C154.369 154.097 151.494 154.617 148.473 154.777C146.262 154.897 144.125 154.737 142.061 155.217C142.061 155.217 142.061 155.217 141.988 155.217C138.082 155.497 134.176 155.897 130.27 156.097C125.701 156.337 121.132 156.297 116.563 156.657C112.214 157.017 107.94 157.457 103.592 157.857C99.3914 158.257 94.8959 159.097 90.5479 159.017C90.4742 158.537 90.4005 158.057 90.3268 157.577C90.4742 157.577 170.508 151.137 172.277 152.097ZM164.023 122.734C164.096 122.734 164.17 122.734 164.244 122.734C164.612 122.654 164.686 122.694 164.833 122.854C164.907 122.934 164.907 123.134 164.833 123.174C164.686 123.294 164.391 123.214 164.17 123.054C164.096 122.974 164.023 122.854 164.023 122.734ZM60.7748 1.72379C61.9539 1.72379 63.133 1.72379 64.2384 1.72379C70.3552 1.64379 76.472 1.64378 82.5887 1.68379C88.7792 1.72379 95.0433 1.8438 101.234 1.96381C104.108 2.00382 106.908 2.04382 109.783 2.04382C113.099 2.08382 116.563 1.8038 119.879 2.12383C120.763 3.76397 121.869 7.92433 120.247 8.12435C114.941 8.28436 76.6194 7.32428 67.997 7.00425C65.7124 6.80423 62.9119 6.48421 60.6274 6.68422C60.6274 5.04408 60.7748 3.36393 60.7748 1.72379ZM47.6569 5.84415C48.1727 4.64405 48.6149 3.36393 48.6886 2.08382C52.1523 1.7638 55.7635 1.72379 59.3009 1.72379C59.3009 3.44394 59.1535 5.16409 59.1535 6.88424C58.785 6.96425 58.4902 7.04426 58.1954 7.16427C57.5322 7.40429 57.311 7.5243 56.7952 7.80432C55.1739 8.64439 54.4369 7.48429 53.6263 7.24427C51.8576 6.68422 49.8678 6.60422 47.9517 6.24418C47.6569 6.16418 47.5832 6.00416 47.6569 5.84415ZM56.5741 28.0861C56.5004 28.0861 56.5741 28.0861 56.0582 28.3261C54.1421 29.2062 52.0786 30.1263 50.3836 31.1663C51.0469 29.6062 51.4891 28.0061 52.0786 26.4059C52.4471 26.4859 52.963 26.646 53.4052 26.686C54.9528 26.766 55.6897 26.686 56.4267 26.4059C56.5741 26.726 56.5741 27.8461 56.5741 28.0861ZM63.4278 77.5704C59.0061 77.3704 54.658 77.8904 50.1625 77.8904C47.5832 77.8904 45.0775 77.0903 43.014 76.3703C40.7295 75.5702 38.7397 74.8101 38.7397 73.33C41.6875 66.6894 50.4573 33.9666 50.4573 33.9666C50.4573 33.9666 50.4573 33.9666 50.4573 33.9266C51.7102 32.4465 56.2056 30.2863 56.2056 30.2863C56.2056 30.2863 62.175 73.61 63.4278 77.5704ZM55.2476 25.0858C54.5843 25.1658 53.4789 25.1658 53.6263 24.7658C53.9947 23.2857 54.5106 21.8455 55.0265 20.4054C55.0265 20.5254 55.1002 20.6454 55.1002 20.7254C55.4687 21.9255 55.9845 25.0058 55.2476 25.0858ZM43.4562 29.2862C44.6354 24.7258 46.1093 20.2054 47.8043 15.685C48.7623 13.0848 51.0469 10.4045 50.1625 7.72431C50.0889 7.6043 50.0152 7.48429 49.9415 7.40429C51.0469 7.5643 52.0049 7.76432 52.963 8.12435C52.8156 10.1245 53.6262 12.1247 54.0684 14.0849C53.6999 14.2049 53.4789 14.4049 53.4052 14.7249C53.2578 17.7652 45.8145 39.9271 44.9302 43.1274C44.0458 46.3277 42.793 49.4479 41.8349 52.6482C39.7714 59.4088 38.7397 66.3294 35.7919 73.05C35.7919 73.13 35.7182 73.17 35.7182 73.25C35.7182 73.25 35.7182 73.25 35.7182 73.29C35.7182 73.41 35.7182 73.53 35.7182 73.61C33.7284 72.77 31.6649 72.0099 29.7488 71.0898C36.8236 49.728 43.0141 31.0863 43.4562 29.2862ZM29.454 71.9699C31.5175 72.93 33.802 73.73 35.8655 74.6501C36.0129 74.9702 36.3077 75.2902 36.8973 75.6902C38.5923 76.8903 41.7612 77.8904 44.2669 78.6105C50.6047 80.3706 57.311 78.6505 64.0174 79.2105C66.0071 79.6906 68.5128 80.4906 69.2498 81.6107C70.2078 83.0108 66.5967 82.4508 65.4176 82.2108C65.2702 82.1708 65.1965 82.1708 65.0491 82.1708C61.6591 81.2507 58.1217 81.2107 54.3632 81.3707C49.1308 81.6507 43.9721 81.8107 38.666 81.8107C37.7817 81.8107 33.8758 83.9309 32.4755 84.731C32.9177 83.9709 34.0231 81.6107 34.1705 81.1707C34.539 81.2107 34.9075 81.1707 35.2023 81.0907C37.4869 80.5306 40.361 80.6907 42.2034 79.5705C42.8667 79.1705 42.7193 78.6105 41.9086 78.3304C40.7295 77.9304 29.8225 74.4901 28.7171 73.8901C29.0118 73.29 29.2329 72.6499 29.454 71.9699ZM69.913 124.734C68.3654 124.854 66.8178 124.774 65.2702 124.734C63.2067 124.694 61.0695 125.014 59.0061 125.135C54.1421 125.415 49.1308 125.174 44.2669 125.575C39.4029 125.975 34.6127 126.335 29.7488 126.455C27.6853 126.495 25.6955 126.535 23.632 126.655C22.2318 126.735 20.8316 126.975 19.4314 127.215C19.6524 126.095 30.9279 88.0913 34.6127 85.7311C36.0867 84.811 38.2238 84.291 39.8451 83.4509C43.9721 83.4509 48.0991 83.4109 52.1523 83.1709C56.2056 82.9308 60.2589 82.6508 64.0174 83.7309C64.9754 84.851 69.5446 123.694 69.913 124.734ZM36.6025 79.2905C36.6025 79.2505 36.6762 79.2505 36.6762 79.2105C36.8236 79.0105 36.8973 78.7705 36.971 78.5705C37.4868 78.6905 38.0027 78.8905 38.5186 79.0505C38.0764 79.1305 37.6342 79.1705 37.2658 79.2105C36.971 79.2105 36.8236 79.2505 36.6025 79.2905ZM63.5015 128.295C61.9539 128.215 60.4063 128.295 59.0061 128.335C49.8678 128.695 40.8769 130.095 31.6649 130.175C31.149 130.175 30.7805 130.295 30.5595 130.495C30.4858 130.535 30.4858 130.535 30.4121 130.575C29.1592 131.495 14.2726 138.656 11.5459 140.416C9.11392 142.016 8.67177 143.656 8.89285 145.696C9.18764 147.616 9.77719 151.177 4.54478 150.697C1.15477 150.377 4.83959 146.576 5.35546 145.736C5.94503 144.696 5.87134 143.456 6.23982 142.376C6.75569 140.896 7.19784 139.376 7.64001 137.896C8.59806 134.695 19.0629 103.173 28.4959 74.8901C29.3066 75.2102 30.1909 75.4902 31.0753 75.7302C32.107 76.0502 33.2125 76.3703 34.2443 76.6903C34.1706 76.8903 30.0436 86.2911 29.6751 87.9713C27.3905 93.8918 16.4099 127.015 16.1888 128.295C16.1151 128.855 17.2205 129.135 18.0312 129.055C20.3157 128.855 22.4529 128.335 24.7375 128.215C26.801 128.095 28.8644 128.095 31.0016 128.055C36.0129 127.935 41.0243 127.375 46.0356 127.095C50.7521 126.855 55.4686 126.975 60.1852 126.695C62.2487 126.575 64.2385 126.335 66.302 126.375C68.2181 126.415 69.9867 126.415 71.7554 126.175C71.8291 126.655 71.9028 127.135 72.0502 127.575C70.3552 127.695 68.7339 128.015 67.0389 128.055C65.7861 128.135 64.6806 128.095 63.5015 128.295ZM66.8178 129.015C66.7441 128.975 66.5967 128.935 66.523 128.895C67.1126 128.895 67.6285 128.895 68.218 128.855C69.5446 128.775 70.7974 128.535 72.1239 128.415C72.1976 128.415 72.2713 128.375 72.345 128.375C72.7872 129.895 73.4505 131.415 73.8926 132.935C71.4607 131.615 69.3972 130.175 66.8178 129.015ZM78.6091 153.977C78.0196 150.617 77.3563 147.296 76.9141 143.936C76.472 141.056 67.7021 86.2111 66.8178 83.2909C68.5865 83.4909 70.65 83.4109 70.8711 82.2508C71.0922 80.6907 68.2917 79.5305 65.7861 78.8105C66.302 78.5305 66.6704 78.1704 66.5967 77.9704C65.1965 73.8501 57.8269 14.7249 55.2476 9.04443C55.9845 9.24444 56.0582 9.00443 56.8689 8.80441C57.2373 8.7244 57.5322 8.52438 57.8269 8.40437C58.5639 8.08434 59.2271 7.88433 59.8904 7.76432C60.1115 12.8848 61.5854 17.8852 62.5434 22.9656C63.0593 25.6459 63.133 28.3661 63.3541 31.0463C63.5752 34.0866 64.828 37.0469 64.9017 40.0871C65.0491 44.7275 66.523 49.3679 67.0389 54.0083C67.5548 58.5687 68.955 63.0891 69.3235 67.6095C69.3972 72.85 71.0185 77.9704 72.0502 83.1709C72.5661 85.6511 72.7872 88.1713 73.0819 90.6915C73.303 92.9717 75.2191 102.853 75.6613 105.213C76.1772 107.893 76.1772 110.573 76.9141 113.213C76.8404 113.293 76.8405 113.373 76.8405 113.453C77.5037 115.734 77.5774 118.054 77.7985 120.374C78.0933 122.494 78.7565 124.614 78.9776 126.735C79.4198 131.135 81.557 145.336 81.7781 147.616C81.9992 150.057 82.294 152.497 82.7361 154.937C83.1783 157.457 83.6942 159.978 84.0627 162.498C84.3574 164.378 85.7577 174.219 85.905 177.099C86.0524 179.899 86.1262 182.699 86.9368 185.46C86.4946 185.14 86.1262 184.74 85.8314 184.42C85.0944 183.7 84.21 182.98 83.0309 182.499C83.0309 181.339 83.3257 180.259 83.0309 179.059C82.7361 177.499 81.9992 175.979 82.0729 174.419C82.0729 167.578 79.7883 160.738 78.6091 153.977ZM87.8948 192.62C86.4946 191.98 85.0944 191.1 83.989 190.3C82.6624 189.34 80.82 183.62 82.3677 183.18C84.2837 184.02 84.7996 185.5 86.642 186.38C86.8631 186.5 87.1579 186.58 87.4526 186.66C87.4526 186.66 87.4526 186.66 87.4526 186.7C87.5263 188.06 87.8212 189.42 87.8948 190.74C87.9685 191.38 87.8212 192.02 87.8948 192.62ZM87.5264 177.099C87.379 174.219 85.7577 163.178 85.4629 160.978C85.0944 158.457 84.5048 155.977 84.0627 153.457C83.6205 151.017 83.4731 148.617 83.1783 146.176C82.9572 144.376 81.1148 133.295 80.5989 127.975C80.6726 128.055 80.6726 128.135 80.7463 128.175C81.1148 128.575 81.9992 128.655 82.7361 128.455C83.3994 128.255 83.6205 127.855 83.4731 127.495C83.3257 127.095 82.6624 126.815 81.9255 126.775C81.6307 126.775 81.4833 126.815 81.3359 126.935C81.0411 126.935 80.7463 127.015 80.5989 127.215C80.5989 127.255 80.5253 127.295 80.5253 127.375C80.5253 127.175 80.5252 126.935 80.4515 126.775C80.3041 124.414 73.9663 85.9711 73.4504 83.2109C72.4924 78.0104 70.7974 72.89 70.7237 67.6495C70.2815 63.0891 69.1024 58.5687 68.4391 54.0483C67.7759 49.4079 66.3756 44.6875 66.2282 40.0071C66.2282 40.0071 66.2282 40.0071 66.2282 39.9671C66.0808 37.2069 64.9754 34.4866 64.7543 31.7664C64.5332 29.0862 64.4595 26.3659 64.0174 23.6857C63.6489 21.0055 62.3961 18.4052 62.1013 15.765C61.7328 13.0448 61.2906 10.3245 61.2169 7.6043C61.5117 7.6043 61.8802 7.5643 62.2487 7.5643C63.0593 7.5643 63.87 7.5643 64.6806 7.6043C64.6806 7.64431 81.9255 119.494 82.0729 120.734C82.1465 121.214 82.2202 121.774 82.4413 122.294C82.4413 122.294 82.4413 122.294 82.4413 122.334C83.4731 128.655 86.0525 134.815 86.5683 141.176C86.7894 144.296 86.8631 147.416 87.4526 150.497C87.8211 152.457 92.9799 185.42 93.0536 185.66C92.1692 185.86 88.7792 186.1 88.6318 186.06C87.7475 183.06 87.6738 180.099 87.5264 177.099ZM92.7588 166.098C93.4957 165.978 94.2327 165.858 95.0434 165.698C95.7803 165.538 96.5909 165.498 97.4016 165.458C96.6646 166.218 95.5592 166.898 94.896 167.618C94.2327 168.298 93.7168 168.978 93.2746 169.658C93.0536 169.098 92.8325 168.538 92.8325 167.938C92.9062 167.298 92.9798 166.698 92.7588 166.098ZM94.9696 171.779C95.854 170.378 100.644 165.858 101.16 164.738C101.16 164.698 101.16 164.698 101.16 164.658C103.592 164.538 105.95 164.258 108.309 164.058C106.171 166.578 103.076 168.898 100.718 171.379C99.6125 172.579 98.1386 173.659 96.7383 174.739C95.4118 175.739 94.6749 176.899 93.422 177.899C93.2746 176.379 92.9799 174.859 92.464 173.339C92.7588 173.339 94.9696 171.859 94.9696 171.779ZM91.8744 192.54C91.2848 192.58 90.2531 192.78 89.3688 192.82C89.2214 192.02 89.4424 191.22 89.4424 190.42C89.3687 189.22 89.074 188.06 89.0003 186.86C90.032 186.9 91.1375 186.74 92.0955 186.54C92.464 187.54 92.9799 188.5 93.201 189.54C93.4957 190.66 94.8222 192.34 91.8744 192.54ZM107.645 169.378C105.361 171.419 103.371 173.579 101.16 175.699C99.244 177.499 97.0331 179.179 94.8222 180.859C94.5274 181.059 94.2327 181.299 93.9379 181.539C93.8642 180.739 93.7168 179.899 93.5694 179.099C93.6431 179.099 93.6431 179.059 93.7168 179.019C95.117 178.139 96.0014 177.139 96.9594 176.099C98.3596 174.579 100.497 173.259 101.971 171.779C104.624 169.178 107.793 166.658 109.93 163.938C110.151 163.938 110.298 163.898 110.519 163.898C111.551 163.858 112.509 163.818 113.541 163.778C112.141 165.778 109.709 167.498 107.645 169.378ZM91.6533 164.618C91.5059 163.018 91.0638 161.378 90.6953 159.777C94.0116 159.818 97.1068 159.297 100.349 158.937C104.919 158.377 109.561 157.977 114.131 157.617C119.068 157.217 123.932 157.017 128.943 156.897C133.439 156.777 137.861 156.217 142.356 155.937C142.503 155.937 142.577 155.897 142.651 155.857C144.788 155.457 147.146 155.577 149.357 155.457C151.642 155.337 153.926 155.017 156.211 154.777C159.306 154.457 162.622 154.337 165.791 154.217C168.444 154.137 171.024 153.817 173.751 153.817C173.898 153.817 174.045 153.777 174.193 153.737C174.561 154.257 174.856 154.777 175.077 155.337C175.372 156.057 177.141 158.177 175.298 158.457C173.972 158.737 97.9175 163.458 91.6533 164.618ZM152.084 161.018C152.821 160.978 156.432 160.658 157.39 160.498C157.39 160.698 176.109 169.698 177.877 170.458C180.973 171.859 181.636 173.379 182.447 175.259C180.457 174.659 152.747 161.978 152.084 161.018ZM184.731 183.38C177.583 181.739 176.846 177.659 176.772 173.939C178.614 174.819 180.457 175.619 182.668 176.179C183.552 176.619 184.068 177.259 184.879 177.659C184.952 179.659 185.542 181.579 186.131 183.54C185.542 183.54 185.026 183.42 184.731 183.38ZM187.679 183.78C187.163 181.899 186.5 180.019 186.426 178.059C187.458 178.139 188.637 177.899 189.595 177.619C189.743 177.859 189.89 178.099 190.037 178.339C190.848 179.699 191.511 181.179 192.101 182.579C192.69 183.9 190.037 183.98 187.679 183.78Z" fill="#649BE3"/>
</svg>
