<svg width="154" height="69" viewBox="0 0 154 69" fill="none" xmlns="http://www.w3.org/2000/svg">
<path d="M153.702 13.031C153.333 12.2309 151.565 12.0308 150.312 11.9508C150.091 11.9508 148.248 11.8708 148.248 11.9108C147.954 11.1508 147.585 10.6707 148.617 10.0707C149.059 9.79066 149.28 9.39062 149.28 9.0706C149.28 8.83058 149.133 8.63057 148.985 8.43055C148.985 8.39055 148.912 8.31052 148.912 8.31052C148.985 8.31052 149.059 8.31052 149.206 8.31052C150.533 7.99049 151.417 7.1504 150.754 6.39033C149.796 5.23023 147.364 4.71021 145.301 4.31017C141.174 3.55011 136.973 3.11006 132.772 2.55001C119.065 0.669847 48.9064 0.82989 41.6105 1.02991C34.1672 1.22993 26.6502 1.46994 19.2069 1.66995C15.1536 1.78996 10.3634 2.19001 7.1208 3.63013C6.82602 3.75014 6.6786 3.91015 6.6786 4.07016C5.42577 5.15026 6.08902 6.07031 7.63663 6.99039C6.82598 7.79046 6.75228 8.67057 7.63663 9.43064C7.26815 9.63066 6.82598 9.83066 6.5312 10.0707C6.23641 10.3107 5.79425 10.7107 5.72056 10.9907C5.49947 11.7908 5.79426 11.2308 4.39404 11.2308C1.74099 11.2308 0.635525 12.9509 1.004 14.111C1.81466 16.5112 4.09927 18.4714 6.01536 20.6316C7.41558 22.1917 8.22623 23.9919 11.0267 24.952C11.0267 25.032 11.0267 25.072 11.1003 25.152C12.7217 29.0723 13.3112 33.0327 13.3112 37.073C13.3849 41.1534 14.1219 45.1937 14.0482 49.274C13.9008 52.1143 13.7534 54.9946 15.301 57.7148C16.996 60.6751 21.2704 62.4752 26.2817 63.7153C37.9994 66.5956 51.3383 68.0757 64.1614 67.9957H64.2351H64.3088C73.3734 68.2357 82.5117 67.7157 91.5763 67.5157C100.125 67.3556 108.526 66.9156 116.854 65.8755C124.961 64.8754 137.784 63.1153 139.921 57.9948C140.142 57.8748 140.289 57.6748 140.363 57.4348C140.437 54.3545 141.321 51.2743 141.395 48.154C141.468 48.074 141.542 47.9939 141.542 47.8739C142.648 43.2335 143.311 38.5131 143.827 33.7927C144.343 28.9523 145.595 24.1519 145.374 19.2715C147.364 17.7514 149.501 16.6713 152.081 15.4312C153.554 14.8711 154.218 13.991 153.702 13.031ZM24.9552 2.99004C31.8826 2.63001 38.81 2.63004 45.7375 2.47002C52.0753 2.31001 113.538 2.35001 128.277 3.47011C128.351 3.47011 128.351 3.47011 128.424 3.47011C129.53 3.59012 138.226 4.79023 141.1 5.23027C142.795 5.47029 144.564 5.79029 146.111 6.15032C146.259 6.19033 146.406 6.23035 146.553 6.27035C146.627 6.43037 146.48 6.51034 146.111 6.59035C145.743 6.67036 145.448 6.75037 145.079 6.79037C144.564 6.87038 144.048 6.99043 143.532 7.03043C141.837 7.23045 138.299 7.43046 138.226 7.43046C138.078 7.43046 121.202 8.1105 119.286 8.1105H71.3836C60.7714 8.0705 50.0855 7.71047 39.4733 7.31043C33.7987 7.11042 28.1978 7.03042 22.5969 6.47037C19.9439 6.23035 17.2908 5.79028 14.7115 5.39025C14.7115 5.39025 11.5425 4.87024 10.2897 4.4302C14.2693 2.95007 20.5334 3.19006 24.9552 2.99004ZM142.721 9.47063C141.542 9.83066 141.984 10.5907 141.395 11.1108C141.1 11.1508 140.731 11.1908 140.51 11.1108C140.363 11.0308 140.142 11.0308 139.994 11.0308C139.921 10.9508 139.773 10.9108 139.626 10.8308C139.626 10.3107 139.847 9.79065 140.142 9.31061C141.984 9.07059 143.827 8.75056 145.595 8.31052C145.595 8.43053 145.669 8.51056 145.743 8.63057C145.89 8.79058 145.89 8.95059 145.816 9.0706C145.595 8.99059 145.374 8.9506 145.079 9.0306C144.342 9.23062 143.458 9.23061 142.721 9.47063ZM144.932 9.87067C144.858 9.91067 144.858 9.99069 144.785 10.0307C144.195 10.2307 143.679 10.4307 143.09 10.6307C143.09 10.4307 143.163 10.2307 143.532 10.1107C143.974 9.99067 144.49 9.95067 144.932 9.87067ZM9.99491 5.31026C12.0584 5.95032 14.564 6.15034 16.8486 6.47037C20.0175 6.95041 23.2602 7.31042 26.5765 7.55045C41.3157 8.47053 56.5707 8.79057 71.3836 8.87058H119.507C121.276 8.79057 140.216 8.15052 145.448 7.47046C139.11 9.1506 131.667 9.27062 124.592 9.63066C124.002 9.39063 123.192 9.31062 122.602 9.67065C122.529 9.71065 122.529 9.71064 122.529 9.71064C119.139 9.79065 115.675 9.67065 112.285 9.67065C108.01 9.67065 103.957 10.2707 99.6828 10.3507C99.388 10.3507 99.1669 10.4307 99.0932 10.5507C84.5014 10.4307 69.8359 9.99066 55.2442 9.75064C47.1376 9.63063 39.1048 9.47064 31.072 8.83059C23.7761 8.23053 16.4064 7.9105 9.84751 5.87032C9.55273 5.6303 9.33168 5.35028 9.33168 5.03026C9.55276 5.19027 9.77382 5.27026 9.99491 5.31026ZM138.226 10.6707C136.678 10.6307 135.057 10.7907 133.436 10.9507C133.509 10.8707 133.583 10.8307 133.657 10.7507C133.804 10.5107 133.73 10.2307 133.509 9.99065C135.204 9.87064 136.899 9.75064 138.594 9.55062C138.373 9.91065 138.299 10.3107 138.226 10.6707ZM138.299 11.4708C137.563 11.5108 136.457 11.7108 135.573 11.7508C135.352 11.7508 135.131 11.7908 134.909 11.7908C136.015 11.6308 137.12 11.5108 138.299 11.4708ZM130.267 10.6307C130.34 10.8308 130.561 11.0307 130.856 11.1508C130.488 11.1508 130.193 11.1908 129.824 11.1908C129.014 11.1908 127.687 11.3108 127.024 11.6308C125.845 12.1909 125.919 10.9908 125.624 10.4307C127.171 10.3507 128.793 10.2707 130.34 10.1907C130.267 10.2707 130.267 10.4307 130.267 10.6307ZM132.477 11.9508C131.151 12.0308 129.751 12.1509 128.424 12.2309C129.751 11.9509 131.077 11.9908 132.477 11.9508ZM106.979 12.2309C108.895 11.8308 111.179 11.9909 113.169 11.8308C115.38 11.6308 118.991 11.0707 121.128 11.7908C120.539 11.9508 119.728 11.9508 118.917 11.9508C114.643 11.9908 110.737 12.7109 106.537 12.8709C106.389 12.8709 106.315 12.9109 106.242 12.9109H106.168C105.8 12.9909 105.357 13.0709 104.842 13.1109C105.505 12.7909 106.168 12.4309 106.979 12.2309ZM102.483 12.7509C102.41 12.6709 102.336 12.5909 102.262 12.5109C101.967 12.1509 101.82 11.7508 101.525 11.3908C101.967 11.3908 102.41 11.3908 102.852 11.3908C103.368 11.3908 103.589 11.1908 103.589 10.9907C105.947 10.8307 108.379 10.6307 110.737 10.5107C110.737 10.7107 110.958 10.9508 111.179 11.1108C109.927 11.1508 108.747 11.1908 107.495 11.3108C106.684 11.4308 103.368 12.6709 102.483 12.7509ZM113.538 10.9907C113.317 10.9907 113.095 11.0308 112.874 11.0308C113.095 10.8708 113.169 10.6707 113.169 10.4707C116.117 10.4707 119.065 10.5107 121.939 10.4707C121.939 10.5107 121.939 10.5107 121.939 10.5507C122.013 10.7507 121.939 10.9508 121.939 11.0708C119.581 10.3507 116.117 10.7907 113.538 10.9907ZM73.7419 10.9907C76.9108 11.0707 80.1534 11.1107 83.3224 11.1908V11.2308C83.3224 11.2708 83.396 11.2708 83.396 11.3108C81.7747 11.3108 80.0797 11.3108 78.4584 11.3108C76.3212 11.3108 75.5843 12.1508 73.8156 12.3909C73.7419 11.9908 73.8893 11.4308 73.7419 10.9907ZM76.1001 12.5509C77.2793 11.7508 81.8484 12.0709 83.5434 12.0709C85.2384 12.0709 95.2611 11.6308 95.2611 13.031C95.2611 13.111 95.261 13.1509 95.3347 13.1909C88.8495 13.1509 82.438 12.7109 75.9528 12.6309C75.9528 12.6309 76.0264 12.5909 76.1001 12.5509ZM85.9017 11.3108C85.9017 11.2708 85.9017 11.2708 85.9017 11.2308C87.523 11.2708 89.0706 11.2708 90.6919 11.3108C89.8813 11.3508 89.0706 11.3508 88.4073 11.3508C87.5966 11.3108 86.7861 11.3108 85.9017 11.3108ZM94.0083 11.3508C95.1874 11.3508 96.3665 11.3908 97.5456 11.3908C97.1771 11.7108 96.8823 12.1109 96.5139 12.4309C96.2191 11.7508 95.2611 11.4708 94.0083 11.3508ZM60.0344 12.1109C62.1716 12.1109 64.3088 12.0708 66.2249 12.7109C66.4459 12.7909 66.5934 12.8309 66.8145 12.8709C66.5197 12.9109 66.2985 12.9109 65.9301 12.9509C61.3609 13.1509 56.2023 12.9109 51.7068 12.4709C51.1909 12.4309 50.8224 12.3509 50.3802 12.3109C53.6229 11.9108 56.7918 12.1109 60.0344 12.1109ZM48.6115 11.7108C48.022 11.3908 47.5061 10.9908 47.0639 10.4707C47.0639 10.4707 47.064 10.4307 46.9903 10.4307C48.759 10.4707 50.6014 10.5107 52.3701 10.5507C53.6229 10.5907 54.9494 10.5907 56.2022 10.6307C56.2022 10.9108 56.3496 11.1508 56.5707 11.3108C53.844 11.2708 51.3383 11.2308 48.6115 11.7108ZM57.6762 10.7507C57.6762 10.7907 57.6762 10.7907 57.6762 10.7507C57.6762 10.7107 57.6762 10.6707 57.6762 10.6307C57.9709 10.6307 58.3395 10.6307 58.6342 10.6307C58.6342 10.8308 58.4131 10.9108 58.0446 10.8708C57.9709 10.8708 57.8235 10.8307 57.7498 10.7907C57.6761 10.7907 57.6762 10.7907 57.6762 10.7507C57.6762 10.7907 57.6762 10.7907 57.6762 10.7507ZM64.3825 11.3908C62.9085 11.1908 61.2873 11.2308 59.7397 11.2708C59.9608 11.1108 60.1082 10.8708 60.1082 10.6707C63.7193 10.7507 67.2566 10.8307 70.8677 10.9107C70.1308 11.5508 69.6149 12.0308 68.8779 12.3909C67.3303 12.3108 65.9301 11.5908 64.3825 11.3908ZM26.4291 9.83067C26.3554 9.63066 26.2817 9.47062 26.208 9.31061C26.8713 9.35061 27.6082 9.43063 28.2715 9.47063C29.6717 9.59064 31.1457 9.67063 32.5459 9.75064C32.5459 10.0307 32.4722 10.3507 32.5459 10.6307C32.5459 10.6707 32.5459 10.6707 32.5459 10.7107C30.4824 10.5507 28.4926 10.3507 26.4291 10.4707C26.5028 10.2307 26.5028 9.99069 26.4291 9.83067ZM33.7987 11.5108C35.9359 11.6708 38.9574 11.2708 40.6524 12.1508C40.8735 12.2709 41.0946 12.3909 41.3157 12.4709C40.2102 12.4709 38.8837 12.3109 37.9993 12.2309C35.8622 12.0709 33.6513 12.2309 31.5141 12.0309C30.1139 11.9109 28.7137 11.7108 27.3134 11.4708C26.945 11.4308 26.7239 11.3108 26.5765 11.1908C29.0821 11.1107 31.4404 11.3108 33.7987 11.5108ZM34.0198 9.83067C34.0935 9.83067 34.1672 9.83067 34.2409 9.83067C34.2409 9.91068 34.2409 10.0307 34.3146 10.1107C34.3883 10.2307 34.3883 10.3907 34.3146 10.5107C34.3146 10.5107 34.3146 10.5507 34.2409 10.5507C34.1672 10.5507 34.0935 10.5507 34.0198 10.5107C33.8724 10.4707 33.9461 10.1107 34.0198 9.83067ZM40.3576 10.9907C38.9574 10.7507 37.5572 10.7908 36.0833 10.8308C35.9359 10.8308 35.7885 10.8308 35.5674 10.8308C35.7885 10.5507 35.7885 10.2307 35.6411 9.95065C38.4415 10.1107 41.1683 10.2307 43.9687 10.3507C43.674 10.6707 43.6003 11.0708 43.6003 11.4708C43.5266 11.5108 43.3792 11.5508 43.3055 11.6308C42.5685 12.3109 41.0209 11.1107 40.3576 10.9907ZM19.428 10.5507C19.8702 10.6707 20.3124 10.8307 20.7545 10.9107C20.4598 10.9107 20.165 10.9108 19.8702 10.8308C18.47 10.5907 17.0697 10.3907 15.7432 10.1907C14.1956 9.95064 12.7954 9.59063 11.2478 9.31061C11.1741 9.1906 11.1004 9.07058 10.8793 8.95057C10.8793 8.91056 10.8793 8.87055 10.8793 8.79054C13.7534 9.19058 16.9223 9.79064 19.428 10.5507ZM10.7319 8.03052C10.7319 7.8305 10.6582 7.67048 10.6582 7.47046C10.8056 7.39045 10.953 7.27042 11.0267 7.15041C12.7954 7.59045 14.5641 7.95051 16.4065 8.23053C16.4802 8.47055 16.5539 8.75054 16.7013 8.99056C14.7852 8.59053 12.7217 8.23053 10.7319 8.03052ZM18.2489 8.91057C18.0278 8.79056 17.9541 8.63056 17.8804 8.47054C18.0278 8.47054 18.1751 8.51054 18.3225 8.51054C18.3225 8.67055 18.3963 8.79056 18.2489 8.91057ZM19.0595 9.59061C19.1332 9.55061 19.2806 9.51064 19.3543 9.47063C19.7228 9.27061 19.8702 8.99058 19.8702 8.71056C20.9756 8.83057 22.1548 8.95059 23.3339 9.0706C23.3339 9.1106 23.3339 9.19062 23.3339 9.23062C23.6287 9.63066 23.4076 10.0307 22.9654 10.3107C21.86 10.5107 20.3123 9.99065 19.0595 9.59061ZM140.953 33.9127C140.437 38.4731 139.847 43.1136 138.742 47.634C138.594 47.754 138.521 47.8739 138.521 48.0739C138.447 50.9942 137.636 53.9145 137.489 56.8348C137.415 56.9148 137.341 56.9947 137.341 57.0747C135.941 62.4352 121.423 63.7553 113.464 64.7154C105.357 65.6755 97.0297 65.8755 88.7758 66.0356C80.5955 66.1956 72.489 66.6756 64.3088 66.4356H64.2351C64.2351 66.4356 64.2351 66.4356 64.1614 66.4356C52.9597 66.5156 41.242 65.2754 30.7772 63.0752C25.25 61.9151 20.3124 60.5551 18.1752 57.3548C16.4802 54.8746 16.8486 52.0343 16.996 49.4341C16.996 49.4341 16.996 49.4341 16.996 49.3941C16.996 49.3541 16.996 49.3541 16.996 49.3141C17.0697 45.2337 16.2591 41.1934 16.2591 37.113C16.1854 32.9527 15.5958 28.8323 13.9008 24.7919C13.9008 24.7119 13.8271 24.6719 13.7534 24.5919C13.8271 24.3119 13.6797 23.9919 13.0165 23.7918C11.1004 23.2318 10.1423 22.0317 9.33168 20.9516C9.70016 21.4317 10.1423 21.8717 10.8056 22.3117C11.5426 22.8318 12.9428 22.4317 13.2375 21.9517C13.2375 21.9117 13.2375 21.9117 13.3112 21.8717C15.8169 22.8718 19.8702 22.9118 22.6706 23.3518C27.3135 24.0719 32.5459 24.0719 37.4098 24.3119C48.3168 24.872 59.2975 26.5521 70.2045 26.5121C70.3519 26.5121 70.4256 26.5121 70.4993 26.4721C75.658 26.0721 80.8167 26.2321 85.9754 26.2721C91.1341 26.3121 96.2928 26.0321 101.378 25.8321C106.094 25.672 110.811 25.592 115.454 25.112C120.097 24.6319 125.034 24.6319 129.603 23.9919C129.677 23.9919 129.751 23.9919 129.824 23.9919C134.173 23.8319 138.742 23.4319 142.279 22.0317C142.279 26.0321 141.395 29.9524 140.953 33.9127ZM10.3634 17.6313C10.7319 17.9514 10.953 18.3514 11.0267 18.7914C10.8056 18.3914 10.6582 17.9914 10.3634 17.6313ZM142.5 21.0316C139.257 22.6318 134.762 23.0718 130.488 23.2318C130.34 23.1918 130.119 23.1518 129.972 23.1918C125.255 23.8719 120.023 23.9119 115.233 24.3519C109.705 24.872 104.178 24.952 98.6511 25.152C93.566 25.352 88.5547 25.512 83.396 25.432C78.9006 25.392 74.4789 25.352 70.0571 25.712C60.5503 25.712 50.8961 24.3919 41.4631 23.7519C37.0413 23.4318 32.5459 23.2718 28.1241 23.0318C25.5448 22.8718 23.1865 22.5917 20.7545 22.1917C18.5437 21.8317 15.5958 21.9117 13.8271 20.9916C14.0482 20.3916 14.0482 19.7515 13.9745 19.1515C15.6695 19.3515 17.5119 19.8715 19.1332 20.1115C22.8917 20.6716 27.0187 20.8316 30.8508 21.1916C38.3678 21.9117 46.0322 22.2318 53.6229 22.4318C61.361 22.6318 68.9516 22.9918 76.616 23.3518C80.1534 23.5118 83.7645 23.3518 87.3019 23.5518C90.4708 23.7118 99.9039 23.4718 101.304 23.3118C103.515 23.0318 105.947 23.1118 108.232 22.9918C113.169 22.7118 118.107 22.6317 123.044 22.3917C127.024 22.1917 130.856 21.7517 134.762 21.3117C137.341 21.0316 140.289 20.7516 142.574 19.9515C142.5 20.3116 142.5 20.6716 142.5 21.0316ZM149.133 14.7911C149.354 14.591 149.501 14.391 149.575 14.191C149.649 14.031 149.575 13.831 149.206 13.751C148.322 13.551 147.511 13.551 146.553 13.551C146.185 13.551 145.964 13.711 145.89 13.871C145.743 13.951 145.595 14.031 145.595 14.191C145.522 14.8311 146.038 15.6312 147.438 15.5111C147.585 15.5111 147.733 15.4712 147.88 15.4312C146.775 15.9112 145.816 16.4712 144.932 17.0713C145.006 16.9913 145.079 16.8712 145.153 16.7912C145.301 16.5512 145.227 16.3112 144.932 16.1112C144.564 15.8712 143.9 15.9112 143.385 15.9512C143.237 15.9512 143.163 15.9912 143.09 16.0312C142.869 16.0712 142.648 16.1512 142.648 16.3112C142.5 16.7913 142.353 17.1913 142.721 17.6313C142.869 17.8314 143.385 17.8713 143.753 17.7913C143.9 17.7513 144.121 17.6713 144.269 17.5913C143.827 17.9113 143.384 18.2714 142.942 18.5914C142.869 18.6314 142.869 18.6714 142.869 18.6714C142.795 18.7514 142.721 18.8314 142.648 18.9514C139.994 20.2315 135.646 20.4316 132.33 20.7916C128.424 21.2316 124.592 21.5517 120.686 21.7117C116.559 21.8717 112.432 21.9917 108.305 22.1917C106.315 22.3117 104.252 22.3117 102.262 22.3917C100.346 22.5117 89.5128 22.8718 86.2702 22.6718C82.6591 22.4718 78.9743 22.6318 75.3632 22.4718C67.6251 22.0717 60.0344 21.7917 52.2226 21.5917C44.4109 21.3916 36.4517 20.9116 28.7874 20.1515C25.25 19.8315 21.7126 19.6315 18.2489 19.1115C16.7749 18.9114 15.3747 18.4714 13.9008 18.3114C13.9008 18.1914 13.8271 18.0314 13.8271 17.9114C13.3849 16.4712 10.5108 15.7912 10.2897 14.391C10.2897 14.151 10.0686 13.951 9.77383 13.831C9.77383 13.431 9.25794 13.0709 8.37359 13.1109C7.71033 13.1509 7.12078 13.1109 6.45752 12.9909C5.49947 12.7909 4.68882 13.3109 4.61512 13.751C4.32034 15.1111 6.16274 16.4712 7.34188 17.6313C8.37362 18.6714 8.7421 19.7915 9.55275 20.8316C9.40536 20.6316 9.25794 20.4316 9.11055 20.2316C7.71033 18.4314 5.79424 16.8313 4.6888 14.9511C4.32032 14.351 3.21492 12.8309 5.64688 12.8309C6.67862 12.8309 6.97341 12.7909 7.85776 12.5509C8.22624 12.4309 8.59468 12.1508 8.74207 11.9508C9.18425 11.1108 9.40537 10.7907 10.8056 10.2707C10.8793 10.2307 11.0267 10.1907 11.1003 10.1107C14.5641 10.7107 18.1015 11.7908 21.7126 11.9508C23.8498 12.0308 25.0289 11.3908 25.3236 10.5507C25.3973 11.1508 25.471 11.7908 26.0606 11.9908C28.1978 12.6309 30.8509 12.8709 33.2828 12.9509C36.5992 13.0709 40.505 13.551 43.8213 13.1909C44.4109 13.1109 44.9268 12.8709 45.1479 12.5509C45.2952 12.3109 45.6637 10.1907 46.6218 11.5508C47.6535 13.0709 50.2329 13.1109 52.9596 13.3509C57.0866 13.751 61.2873 13.711 65.4142 13.751C67.7725 13.791 70.6466 13.511 71.8257 12.2709C72.1205 11.9508 72.3416 11.5908 72.5627 11.2708C72.7101 11.0708 72.6365 12.4309 72.6365 12.5909C72.5628 13.0709 73.3734 13.311 73.9629 13.511C74.2577 13.631 74.5525 13.591 74.7736 13.471C81.9221 13.511 88.9969 14.031 96.1454 14.071C96.3665 14.071 96.5139 14.031 96.6613 13.951C96.8087 13.951 96.8824 13.911 97.0298 13.871C97.7667 13.511 98.2089 12.9909 98.6511 12.5109C98.9458 12.1909 99.2406 11.8708 99.6828 11.5908C100.346 11.1507 101.157 12.5909 101.23 12.7909C101.304 12.9109 101.378 12.9909 101.452 13.0709C101.452 13.191 101.525 13.2709 101.673 13.3909C101.894 13.511 102.041 13.551 102.262 13.631C103.515 14.1911 105.578 14.111 107.126 13.751C110.148 13.631 113.095 13.1109 116.191 12.9509C118.328 12.8309 120.539 12.9509 122.602 12.6309C123.487 12.4709 124.297 11.9909 124.297 11.4708C124.297 11.4308 124.076 9.87065 124.813 10.9507C125.108 11.3908 124.518 11.9508 125.182 12.3909C125.403 12.5109 125.624 12.6709 125.919 12.7909C125.919 12.9909 126.14 13.1909 126.655 13.1909C129.972 13.1509 133.288 12.7509 136.604 12.6309C137.636 12.5909 139.773 12.5509 140.51 11.9908C141.984 12.3909 143.974 11.6308 145.374 11.1108C145.669 12.3509 146.111 13.471 148.912 13.591C149.575 13.631 150.165 13.631 150.828 13.671C151.196 13.551 150.091 14.231 149.133 14.7911ZM147.88 14.351C147.88 14.391 147.806 14.4311 147.806 14.4311C147.733 14.4711 147.659 14.551 147.585 14.591C147.585 14.591 147.29 14.6711 147.364 14.6711C147.29 14.6711 147.29 14.6711 147.217 14.7111C147.143 14.6311 147.069 14.471 147.069 14.351C147.29 14.311 147.585 14.311 147.88 14.351Z" fill="#649BE3"/>
</svg>
